<svg width="611" height="350" viewBox="0 0 611 350" fill="none" xmlns="http://www.w3.org/2000/svg">
<path d="M184.065 128.488L182.814 130.096C182.605 130.365 182.423 130.653 182.271 130.958L181.7 132.1C181.57 132.36 181.36 132.57 181.1 132.7C180.722 132.889 180.278 132.889 179.9 132.7L179.5 132.5L156.5 123.5L154.162 122.721C153.724 122.575 153.264 122.5 152.802 122.5H152.46C151.834 122.5 151.222 122.685 150.701 123.033C150.242 123.339 149.87 123.76 149.623 124.253L149 125.5L144 139L143.215 140.569C143.072 140.856 142.949 141.153 142.848 141.457L142.658 142.026C142.553 142.34 142.5 142.669 142.5 143C142.5 143.331 142.553 143.66 142.658 143.974L142.892 144.677C142.964 144.892 143.051 145.102 143.152 145.305L143.304 145.607C143.434 145.867 143.605 146.105 143.811 146.311C143.937 146.437 144.075 146.55 144.223 146.649L144.714 146.976C145.236 147.324 145.799 147.607 146.389 147.818C149.916 149.077 152.018 152.701 151.359 156.388L150.124 163.304C150.043 163.757 149.825 164.175 149.5 164.5C149.174 164.826 148.924 165.227 148.779 165.664C148.597 166.21 148.577 166.796 148.723 167.352L168.5 243L168.892 244.177C168.964 244.392 169.051 244.602 169.152 244.805L169.411 245.322C169.47 245.44 169.548 245.548 169.641 245.641C169.871 245.871 170.183 246 170.508 246H171.5C172.163 246 172.824 245.908 173.462 245.725L185.058 242.412C186.015 242.139 187.005 242 188 242H188.225C189.073 242 189.919 242.084 190.75 242.25C191.581 242.416 192.427 242.5 193.275 242.5H195L199.5 242L203.5 241L205.786 240.086C205.928 240.029 206.076 239.985 206.226 239.955C207.511 239.698 208.777 240.47 209.137 241.729L210.138 245.232C210.377 246.069 210.444 246.945 210.336 247.809L210 250.5V251.42C210 252.139 210.059 252.856 210.178 253.565C210.391 254.848 210.796 256.091 211.377 257.255L212 258.5L212.59 259.484C213.195 260.491 213.92 261.42 214.75 262.25C215.58 263.08 216.509 263.805 217.516 264.41L218.5 265L218.84 265.146C220.925 266.039 223.17 266.5 225.438 266.5H225.556C226.847 266.5 228.133 266.342 229.386 266.028L229.859 265.91C230.948 265.638 231.994 265.218 232.969 264.661L233.213 264.521C234.394 263.846 235.436 262.955 236.286 261.893C236.761 261.299 237.171 260.657 237.511 259.977L237.851 259.299C238.283 258.435 238.634 257.533 238.899 256.604C239.298 255.208 239.5 253.764 239.5 252.312V252C239.5 250.344 239.233 248.699 238.709 247.128L238.5 246.5L238.307 246.018C237.828 244.82 238.189 243.449 239.197 242.642C239.717 242.226 240.362 242 241.028 242H244L248 242.5L252.269 243.157C253.754 243.385 255.255 243.5 256.757 243.5C258.582 243.5 260.403 243.331 262.196 242.994L267.5 242L269.025 241.492C271.998 240.501 274.843 239.161 277.5 237.5L281 235L283.622 232.815C283.873 232.606 284.092 232.362 284.273 232.091C284.741 231.389 285.453 230.887 286.272 230.682L286.517 230.621C286.838 230.541 287.167 230.5 287.498 230.5H289.553C290.841 230.5 292.117 230.732 293.323 231.184C294.758 231.722 296.061 232.561 297.144 233.644L298.5 235L301 237.5C302.659 239.159 304.532 240.59 306.57 241.754L307 242L311.5 244C314.825 244.997 318.242 245.658 321.699 245.973L322 246H324.681C325.559 246 326.435 245.927 327.301 245.783C328.43 245.595 329.536 245.286 330.599 244.86L331.5 244.5L332.599 244.134C332.865 244.045 333.143 244 333.422 244C334.112 244 334.774 244.274 335.262 244.762L336.656 246.156C337.215 246.715 337.861 247.18 338.568 247.534L340.5 248.5L341.338 248.919C343.226 249.863 344.299 251.91 344 254L343.5 257L343.352 257.889C343.119 259.289 343.089 260.715 343.265 262.124L343.315 262.523C343.438 263.504 343.686 264.465 344.053 265.382C344.35 266.125 344.724 266.836 345.168 267.502L346.5 269.5L348.5 272L349.536 273.036C349.845 273.345 350.183 273.622 350.546 273.864L350.86 274.073C351.284 274.356 351.752 274.563 352.246 274.686C353.065 274.891 353.925 274.858 354.726 274.591L355 274.5L371.589 267.775C372.79 267.288 373.686 266.257 374 265C374.333 263.337 374.5 261.646 374.5 259.95V259V258.562C374.5 257.192 374.332 255.828 374 254.5L373 252L372.827 251.48C372.639 250.918 372.894 250.303 373.424 250.038C373.475 250.013 373.527 249.991 373.58 249.973L375 249.5L386 247L392 245.5L397.718 243.458C398.559 243.158 399.462 243.077 400.343 243.224C401.421 243.403 402.415 243.915 403.188 244.688L404.5 246L407.157 248.067C408.384 249.021 409.703 249.89 411.061 250.645C412.667 251.537 414.377 252.292 416.12 252.873C418.365 253.622 420.692 254.099 423.05 254.296L425.5 254.5H428.104C429.033 254.5 429.962 254.434 430.882 254.303C432.29 254.101 433.672 253.748 435.003 253.249L437 252.5L438.314 252.171C438.74 252.065 439.19 252.19 439.5 252.5C440.165 253.165 440.894 253.763 441.677 254.284L442 254.5L443.5 255.5L445 256.5L448 258L449.131 258.565C449.709 258.854 450.316 259.079 450.943 259.236L451.579 259.395C451.859 259.465 452.146 259.5 452.434 259.5H452.487C453.148 259.5 453.793 259.304 454.343 258.938C454.775 258.65 455.134 258.265 455.392 257.814L462.873 244.722C462.956 244.577 463 244.412 463 244.244C463 243.805 463.295 243.422 463.719 243.311L471.51 241.26C472.156 241.091 472.837 241.112 473.471 241.324C473.821 241.44 474.188 241.5 474.558 241.5H475.056C475.682 241.5 476.305 241.41 476.905 241.232L488.863 237.689C489.281 237.565 489.661 237.339 489.97 237.03C490.316 236.684 490.558 236.247 490.669 235.769L493.182 224.879C493.391 223.973 493.382 223.029 493.157 222.127L493.109 221.938C493.037 221.647 492.932 221.365 492.798 221.096C492.601 220.701 492.341 220.341 492.028 220.028L483.322 211.322C483.109 211.109 482.862 210.931 482.593 210.796C482.203 210.601 481.773 210.5 481.337 210.5H481.014C480.673 210.5 480.332 210.542 480.001 210.625L466.5 214L462.5 214.5H462.222C461.78 214.5 461.375 214.25 461.177 213.854C461.062 213.624 461.026 213.363 461.075 213.111L467.894 177.553C467.963 177.194 467.911 176.823 467.748 176.496C467.587 176.174 467.326 175.913 467.004 175.752L466.811 175.655C466.605 175.552 466.384 175.481 466.157 175.443L448.5 172.5L446 172.083C445.667 172.028 445.331 172 444.993 172H444.34C444.115 172 443.891 172.036 443.677 172.108C442.951 172.35 442.415 172.968 442.278 173.721L439.658 188.132C439.558 188.679 439.208 189.146 438.711 189.394C438.571 189.464 438.422 189.516 438.268 189.546L437.063 189.787C436.356 189.929 435.637 190 434.916 190H430.5L422 189L411.5 187.5L406.419 186.411C405.145 186.138 403.91 185.705 402.744 185.122L401.132 184.316C400.713 184.107 400.331 183.831 400.001 183.501C399.35 182.85 398.923 182.011 398.779 181.102L397.5 173L388.895 140.969C388.633 139.995 388.228 139.065 387.694 138.21L387.483 137.873C386.518 136.328 385.102 135.115 383.428 134.398C382.811 134.133 382.167 133.939 381.507 133.819L379.441 133.444C377.817 133.149 376.17 133 374.519 133H371.5L368.68 133.353C365.233 133.783 361.828 134.502 358.5 135.5L353.362 136.968C352.131 137.32 350.975 137.894 349.951 138.662C348.35 139.862 347.127 141.495 346.424 143.369L346 144.5L344.782 147.342C344.595 147.779 344.457 148.236 344.372 148.705C343.858 151.532 341.506 153.66 338.642 153.889L331 154.5H321.64C321.214 154.5 320.789 154.465 320.368 154.395L319.659 154.276C316.864 153.811 314.662 151.641 314.155 148.853C314.052 148.287 313.877 147.736 313.633 147.214L311.52 142.687C310.841 141.232 310.037 139.839 309.116 138.523C307.712 136.517 306.047 134.706 304.165 133.138L303.791 132.826C301.937 131.28 299.91 129.955 297.751 128.875L297 128.5L295.187 127.744C292.407 126.586 289.491 125.784 286.51 125.359C284.839 125.12 283.153 125 281.464 125H275.5H270L259.5 124C257.507 124 255.834 125.498 255.613 127.479L255.521 128.313C255.231 130.922 252.916 132.826 250.3 132.608L246.202 132.267C244.198 132.1 242.404 130.957 241.406 129.21C241.136 128.739 240.805 128.305 240.422 127.922L238.311 125.811C237.106 124.606 235.795 123.512 234.395 122.542L232.908 121.513C230.974 120.174 228.915 119.025 226.76 118.082C223.603 116.701 220.266 115.774 216.848 115.328L214.892 115.073C211.981 114.693 209.029 114.76 206.138 115.27C203.394 115.754 200.734 116.633 198.242 117.879L196.608 118.696C194.209 119.896 191.937 121.335 189.828 122.992L188.479 124.052C186.832 125.346 185.35 126.836 184.065 128.488Z" fill="#1B4E16" stroke="#1B4E16" stroke-width="12"/>
<path d="M244.483 155.488C240.421 173.762 219.596 179.852 206.288 176.894C191.013 173.498 180.07 159.461 183.737 142.968C188.028 123.663 204.689 116.844 221.182 120.51C241.893 125.114 247.192 143.305 244.483 155.488ZM212.516 159.495C219.17 160.974 223.377 156.205 224.564 150.863C224.96 149.083 226.606 139.909 217.047 137.785C209.175 136.035 205.447 142.188 204.51 146.405C203.072 152.872 207.175 158.307 212.516 159.495Z" fill="#87FFA1"/>
<path d="M312.37 163.145L311.992 166.29C311.35 171.628 312.073 176.066 315.546 180.157C316.06 180.703 316.899 181.77 316.773 182.819C316.704 183.391 316.349 183.928 315.625 184.325C315.602 184.515 305.352 190.148 305.352 190.148C304.308 190.796 303.32 190.967 302.462 190.864C300.747 190.658 286.104 183.773 288.143 166.807L288.533 163.567C289.736 153.559 285.379 148.78 278.467 147.563L272.497 181.944C272.382 182.897 271.421 183.652 270.468 183.537L270.277 183.514L251.329 180.269C250.197 180.037 249.538 179.087 249.675 177.943L258.207 128.69C258.428 127.653 259.389 126.898 260.342 127.012L260.533 127.035L271.139 128.891C274.948 128.575 278.521 128.618 281.952 129.03C301.301 131.356 314.558 144.94 312.37 163.145Z" fill="#87FFA1"/>
<path d="M187.83 241.026L172.282 245.031C171.247 245.239 170.154 244.676 169.833 243.565L150.428 167.465L150.391 167.276C150.201 166.335 150.878 165.318 151.801 165.035L170.435 160.311L170.623 160.273C171.659 160.065 172.582 160.761 172.884 161.777L179.403 187.395C182.752 185.547 186.498 184.207 190.451 183.412C208.521 179.781 222.593 188.41 225.997 205.351C229.44 222.481 216.896 237.535 200.425 240.845C196.378 241.658 192.179 241.718 187.83 241.026ZM183.975 205.277L188.793 223.892C190.488 224.041 192.031 223.927 193.537 223.624C200.126 222.3 204.206 216.78 202.92 210.38C202.107 206.333 198.844 200.33 191.126 201.881C188.397 202.43 185.838 203.825 183.975 205.277Z" fill="#87FFA1"/>
<path d="M290.8 213C290.8 231.72 271.792 242.184 258.16 242.184C242.512 242.184 228.784 230.856 228.784 213.96C228.784 194.184 243.568 183.912 260.464 183.912C281.68 183.912 290.8 200.52 290.8 213ZM260.464 223.848C267.28 223.848 270.352 218.28 270.352 212.808C270.352 210.984 269.968 201.672 260.176 201.672C252.112 201.672 249.808 208.488 249.808 212.808C249.808 219.432 254.992 223.848 260.464 223.848Z" fill="#87FFA1"/>
<path d="M356.969 237.276L349.667 248.095C348.613 249.611 347.557 250.354 346.318 250.204C345.365 250.089 338.877 247.758 334.653 242.703C329.386 244.677 324.101 245.199 319.241 244.612C303.325 242.689 291.074 228.832 292.928 213.487C294.31 202.051 304.403 186.541 323.274 188.821C328.039 189.397 332.582 191.009 336.104 193.079C336.756 192.481 337.648 192.298 338.792 192.436L339.268 192.494L355.584 195.916C358.039 196.406 358.556 197.725 358.418 198.869L358.361 199.345C355.978 207.857 353.642 215.988 352.882 222.278C352.192 227.996 352.745 232.221 355.599 234.21C356.494 234.802 357.474 235.5 357.359 236.453C357.336 236.644 357.206 236.918 356.969 237.276ZM329.885 226.945C329.898 224.433 330.03 221.741 330.387 218.787C330.686 216.309 331.092 213.747 331.628 210.911C330.715 208.866 328.303 207.221 325.539 206.887C319.535 206.162 315.497 211.573 314.909 216.433C314.265 221.77 317.429 226.794 323.624 227.543C325.435 227.761 327.577 227.633 329.885 226.945Z" fill="#87FFA1"/>
<path d="M392.818 244.342L374.023 247.924C372.881 248.077 371.828 247.443 371.675 246.302L362.385 197.18C362.232 196.038 362.961 194.972 364.008 194.832L374.969 192.783C379.89 190.477 384.736 189.054 389.494 188.417C392.729 187.983 395.92 187.943 398.958 188.214C400.437 188.404 401.11 189.089 401.262 190.23C401.313 190.611 401.269 191.004 401.238 191.493L400.275 205.279C400.168 206.649 399.306 207.443 398.164 207.595C397.878 207.634 397.485 207.589 397.092 207.545C395.506 207.273 393.85 207.205 392.232 207.421C390.9 207.6 389.593 207.968 388.122 208.553L394.441 241.994L394.466 242.184C394.606 243.231 393.864 244.202 392.818 244.342Z" fill="#87FFA1"/>
<path d="M462.183 245.169L455.575 256.447C454.591 258.164 453.521 259 452.092 258.825C452.092 258.825 444.003 256.961 439.322 250.97C433.623 253.268 427.933 253.924 422.692 253.28C406.78 251.327 394.652 237.457 396.535 222.116C397.963 210.492 408.062 195.192 426.929 197.509C431.026 198.012 435.018 199.373 438.296 201.033L443.147 175.707C443.441 174.099 445.082 173.333 446.988 173.567L463.437 175.877C466.105 176.205 466.715 177.537 466.551 178.871L466.516 179.157C466.174 180.372 458.246 219.731 457.439 226.306C456.479 234.119 456.909 240.072 460.605 242.267C461.595 242.872 462.584 243.477 462.479 244.334C462.444 244.62 462.409 244.906 462.183 245.169ZM434.382 235.275C434.241 230.905 434.48 225.808 435.229 219.71C434.415 217.676 431.911 216.014 429.052 215.663C423.335 214.961 419.071 219.757 418.416 225.093C417.76 230.429 420.915 235.459 427.013 236.208C429.109 236.465 431.562 236.186 434.382 235.275Z" fill="#87FFA1"/>
<g clip-path="url(#clip0_1_3)">
<path d="M355.94 140.308L357.414 146.124M367.572 137.36L369.046 143.176M365.274 177.144L366.748 182.96M376.906 174.196L378.38 180.012M381.196 150.414L387.012 148.94M383.652 160.107L389.468 158.633M344.36 159.748L350.176 158.274M346.817 169.441L352.633 167.968M351.597 147.598L374.862 141.703C377.004 141.16 379.179 142.456 379.722 144.597L385.617 167.862C386.16 170.004 384.864 172.179 382.722 172.722L359.458 178.617C357.316 179.16 355.14 177.864 354.598 175.722L348.703 152.458C348.16 150.316 349.456 148.14 351.597 147.598ZM359.87 155.818L371.502 152.87L374.45 164.502L362.818 167.45L359.87 155.818Z" stroke="white" stroke-width="4" stroke-linecap="round" stroke-linejoin="round"/>
</g>
<g clip-path="url(#clip1_1_3)">
<path d="M148.97 131.918L176.333 142.488M154.34 125.416L176.728 134.064C178.102 134.595 178.785 136.139 178.254 137.513L172.489 152.438C171.959 153.812 170.415 154.495 169.041 153.964L146.653 145.317C145.279 144.786 144.596 143.242 145.126 141.868L150.891 126.943C151.422 125.569 152.966 124.886 154.34 125.416Z" stroke="white" stroke-width="3" stroke-linecap="round" stroke-linejoin="round"/>
</g>
<path d="M233.48 242.853C235.158 244.532 236.3 246.67 236.763 248.998C237.226 251.325 236.988 253.738 236.08 255.93C235.171 258.123 233.633 259.997 231.66 261.315C229.686 262.634 227.367 263.337 224.993 263.337C222.62 263.337 220.3 262.634 218.327 261.315C216.354 259.997 214.816 258.123 213.907 255.93C212.999 253.738 212.761 251.325 213.224 248.998C213.686 246.67 214.829 244.532 216.507 242.853M225 236.667V250" stroke="white" stroke-width="3" stroke-linecap="round" stroke-linejoin="round"/>
<g clip-path="url(#clip2_1_3)">
<path d="M361.976 252.573C362.951 252.965 363.84 253.546 364.591 254.281C365.341 255.017 365.94 255.894 366.352 256.861C366.763 257.829 366.98 258.868 366.99 259.919C367 260.97 366.803 262.013 366.41 262.988M356.001 267.404C355.026 267.012 354.137 266.431 353.386 265.696C352.636 264.96 352.037 264.083 351.625 263.116C351.214 262.148 350.997 261.109 350.987 260.058C350.977 259.007 351.174 257.964 351.567 256.989M363.97 247.623C367.249 248.944 369.869 251.514 371.254 254.767C372.639 258.02 372.675 261.69 371.354 264.97M354.007 272.354C350.728 271.033 348.108 268.463 346.723 265.21C345.338 261.957 345.302 258.287 346.623 255.007M361.442 258.944C362.019 260.299 361.388 261.865 360.033 262.442C358.678 263.019 357.112 262.388 356.535 261.033C355.958 259.678 356.589 258.112 357.944 257.535C359.299 256.958 360.865 257.589 361.442 258.944Z" stroke="white" stroke-width="3" stroke-linecap="round" stroke-linejoin="round"/>
</g>
<g clip-path="url(#clip3_1_3)">
<path d="M484.711 224.273L475.011 214.383M468.593 216.4L477.996 226.013L491.017 222.654M474.389 238.946L478 226M488.126 234.361L490.992 224.087C491.117 223.636 491.121 223.161 491.005 222.708C490.888 222.255 490.654 221.841 490.327 221.507L482.77 213.862C482.442 213.528 482.032 213.285 481.582 213.16C481.131 213.034 480.655 213.029 480.201 213.145L469.778 215.775C469.325 215.891 468.911 216.125 468.577 216.452C468.243 216.779 468 217.188 467.874 217.639L465.008 227.913C464.883 228.364 464.879 228.839 464.995 229.292C465.112 229.745 465.346 230.159 465.673 230.493L473.23 238.138C473.558 238.472 473.968 238.715 474.418 238.84C474.869 238.966 475.345 238.971 475.799 238.855L486.222 236.225C486.675 236.109 487.089 235.875 487.423 235.548C487.757 235.221 488 234.812 488.126 234.361Z" stroke="white" stroke-width="3" stroke-linecap="round" stroke-linejoin="round"/>
</g>
<defs>
<clipPath id="clip0_1_3">
<rect width="48" height="48" fill="white" transform="translate(338 142.791) rotate(-14.2195)"/>
</clipPath>
<clipPath id="clip1_1_3">
<rect width="32" height="32" fill="white" transform="translate(152.53 119) rotate(21.12)"/>
</clipPath>
<clipPath id="clip2_1_3">
<rect width="32" height="32" fill="white" transform="translate(338 251.534) rotate(-23.0591)"/>
</clipPath>
<clipPath id="clip3_1_3">
<rect width="32" height="32" fill="white" transform="translate(466.887 206.29) rotate(15.5852)"/>
</clipPath>
</defs>
</svg>
