<svg width="591" height="358" viewBox="0 0 591 358" fill="none" xmlns="http://www.w3.org/2000/svg">
<path d="M178 166L173.895 169.358C172.97 170.115 172.163 171.006 171.5 172L170.407 173.822C170.136 174.273 169.902 174.746 169.706 175.235C169.24 176.401 169 177.645 169 178.901V179.448C169 180.148 169.058 180.847 169.173 181.538L169.283 182.2C169.428 183.065 169.639 183.918 169.917 184.75C170.304 185.913 170.818 187.03 171.449 188.081L172 189C173.33 190.662 174.824 192.187 176.46 193.55L177 194L180 196.5L181.686 198.186C181.895 198.395 182.083 198.624 182.246 198.87L182.639 199.458C182.874 199.812 183 200.227 183 200.651C183 200.882 182.963 201.112 182.89 201.331L182.765 201.705C182.591 202.228 182.297 202.703 181.907 203.093C181.638 203.362 181.326 203.587 180.985 203.758L180.5 204L180.128 204.186C179.045 204.728 177.914 205.167 176.75 205.5L175.469 205.866C175.157 205.955 174.854 206.073 174.564 206.218L173.4 206.8C173.14 206.93 172.93 207.14 172.8 207.4C172.611 207.778 172.611 208.222 172.8 208.6L173 209L179.684 220.458C179.894 220.818 180.149 221.149 180.444 221.444L180.737 221.737C180.911 221.911 181.112 222.056 181.333 222.166C181.766 222.383 182.258 222.457 182.736 222.377L185 222L191 220.5L196 218.5L200.5 216.5L203 215L204.123 214.158C204.705 213.721 205.342 213.363 206.018 213.093L206.572 212.871C207.185 212.626 207.839 212.5 208.5 212.5C209.164 212.5 209.826 212.581 210.47 212.743L210.557 212.764C211.184 212.921 211.791 213.146 212.369 213.435L212.5 213.5L212.676 213.588C213.211 213.855 213.645 214.289 213.912 214.824C213.971 214.941 214.021 215.062 214.062 215.186L214.152 215.457C214.383 216.148 214.5 216.871 214.5 217.6V218V218.094C214.5 218.361 214.562 218.624 214.682 218.863C214.885 219.271 215.243 219.581 215.676 219.725L216.194 219.898C216.398 219.966 216.607 220.012 216.82 220.036L234.5 222L237.157 222.443C237.384 222.481 237.605 222.552 237.811 222.655L237.915 222.707C238.295 222.897 238.603 223.205 238.793 223.585C238.929 223.858 239 224.159 239 224.464V224.986C239 225.327 238.958 225.668 238.875 225.999L238.5 227.5L238.435 227.696C238.146 228.563 237.763 229.395 237.293 230.178C236.766 231.056 236.134 231.866 235.41 232.59L235 233C234.335 233.665 233.606 234.263 232.823 234.784L232.5 235L231.9 235.3C231.64 235.43 231.43 235.64 231.3 235.9C231.111 236.278 231.111 236.722 231.3 237.1L231.377 237.255C231.459 237.417 231.565 237.565 231.694 237.694L231.942 237.942C232.31 238.31 232.749 238.6 233.233 238.793L235 239.5L236.673 240.336C236.891 240.445 237.116 240.539 237.347 240.616L238.256 240.919C238.417 240.972 238.562 241.062 238.682 241.182C238.885 241.385 239 241.662 239 241.95V242V243V244V244.382C239 245.117 239.171 245.842 239.5 246.5L239.65 246.799C239.882 247.263 240.187 247.687 240.554 248.054L240.734 248.234C241.235 248.735 241.863 249.091 242.551 249.263C243.174 249.419 243.826 249.419 244.449 249.263L245.5 249L246.822 248.736C247.6 248.58 248.34 248.274 249 247.834C249.332 247.612 249.642 247.358 249.925 247.075L250.5 246.5L251.306 245.694C251.435 245.565 251.583 245.459 251.745 245.377C252.22 245.14 252.78 245.14 253.255 245.377L253.376 245.438C253.458 245.479 253.544 245.515 253.632 245.544L255 246L256.204 246.401C256.4 246.467 256.605 246.5 256.812 246.5H256.882C257.567 246.5 258.194 246.113 258.5 245.5L258.562 245.376C258.838 244.824 258.838 244.176 258.562 243.624C258.521 243.542 258.485 243.456 258.456 243.368L258 242L257.974 241.923C257.66 240.981 257.5 239.993 257.5 239C257.5 237.67 257.631 236.343 257.892 235.039L258 234.5L258.5 232.5L258.515 232.44C258.837 231.152 259 229.828 259 228.5C259 227.838 258.893 227.18 258.684 226.551L258.5 226L258.089 224.767C258.03 224.59 258 224.405 258 224.219V223.95C258 223.662 258.115 223.385 258.318 223.182C258.438 223.062 258.583 222.972 258.744 222.919L259.389 222.704C259.794 222.569 260.217 222.5 260.644 222.5H261C261.663 222.5 262.324 222.592 262.962 222.775L265.5 223.5C267.497 223.833 269.517 224 271.541 224H272.5C274.16 224 275.812 223.783 277.416 223.356L279.587 222.777C281.526 222.26 283.418 221.583 285.244 220.753L286.524 220.171C287.507 219.724 288.451 219.199 289.349 218.601L290.554 217.797C290.851 217.6 291.127 217.373 291.379 217.121L291.678 216.822C291.891 216.609 292.138 216.431 292.407 216.296L292.553 216.224C292.847 216.077 293.171 216 293.5 216H293.527C293.83 216 294.12 216.12 294.334 216.334C294.444 216.444 294.574 216.53 294.718 216.587L296.078 217.131C296.691 217.376 297.33 217.547 297.983 217.64L300.5 218L301.525 218.146C303.173 218.382 304.835 218.5 306.5 218.5C307.14 218.5 307.754 218.246 308.207 217.793L308.219 217.781C308.405 217.595 308.56 217.38 308.678 217.144L308.798 216.904C308.932 216.635 309.037 216.353 309.109 216.062L310.5 210.5L310.891 208.938C310.963 208.647 311.068 208.365 311.202 208.096L311.411 207.678C311.47 207.56 311.548 207.452 311.641 207.359C311.871 207.129 312.183 207 312.508 207H314H315.5H317H317.337C317.773 207 318.203 207.101 318.593 207.296C318.862 207.431 319.109 207.609 319.322 207.822L319.5 208C319.831 208.331 320.214 208.607 320.632 208.816L321 209L322 209.5L323 210L325 211L328.5 212.5C330.164 213.166 331.879 213.695 333.628 214.084L335.5 214.5L340 215H343L347 214.5L349.5 214L349.775 213.921C351.92 213.308 354.004 212.498 356 211.5L356.753 211.124C356.915 211.042 357.095 211 357.276 211C357.72 211 358.125 211.251 358.324 211.647L358.448 211.897C358.483 211.966 358.512 212.037 358.536 212.109L358.652 212.457C358.883 213.148 359 213.871 359 214.6V215C359 215.998 359.09 216.994 359.268 217.976L359.559 219.576C359.853 221.19 360.26 222.781 360.779 224.338L361.569 226.708C361.856 227.568 362.204 228.407 362.609 229.218C363.53 231.061 364.743 232.743 366.199 234.199L367 235L367.966 235.845C369.984 237.611 372.172 239.17 374.5 240.5L376.862 241.55C378.28 242.18 379.779 242.611 381.316 242.831L382.048 242.935C382.349 242.978 382.653 243 382.957 243H383.134C383.707 243 384.277 242.908 384.822 242.726C385.272 242.576 385.7 242.367 386.095 242.103L386.276 241.982C386.754 241.664 387.164 241.254 387.482 240.776C387.824 240.265 388.052 239.686 388.153 239.079L388.361 237.835C388.453 237.279 388.5 236.717 388.5 236.154V235.862C388.5 234.956 388.411 234.053 388.233 233.165L388 232L387.91 231.73C387.644 230.933 387.12 230.247 386.421 229.781C386.142 229.594 385.839 229.446 385.52 229.34L385.02 229.173C384.674 229.058 384.336 228.918 384.01 228.755L383.5 228.5L382.758 228.129C382.587 228.044 382.431 227.931 382.296 227.796C382.101 227.601 381.955 227.364 381.867 227.102L381.629 226.386C381.544 226.131 381.5 225.862 381.5 225.593V225.373C381.5 225.128 381.557 224.886 381.667 224.666C381.878 224.244 382.266 223.939 382.726 223.833L401.213 219.566C401.404 219.522 401.588 219.456 401.763 219.368L401.915 219.293C402.295 219.103 402.603 218.795 402.793 218.415C402.929 218.142 403 217.841 403 217.536V217.5C403 217.168 402.964 216.836 402.892 216.512L401 208L400.545 206.634C400.515 206.545 400.5 206.452 400.5 206.359V206.354C400.5 206.127 400.59 205.91 400.75 205.75C400.91 205.59 401.127 205.5 401.354 205.5H401.5H402.5C403.152 205.5 403.79 205.693 404.332 206.055L404.639 206.259C404.879 206.419 405.134 206.556 405.401 206.668L426.5 215.5L427.5 216L427.606 216.053C428.194 216.347 428.842 216.5 429.5 216.5H431C431.32 216.5 431.627 216.373 431.854 216.146L432.219 215.781C432.405 215.595 432.56 215.38 432.678 215.144L433 214.5L438.785 202.931C438.928 202.644 439.051 202.347 439.152 202.043L439.342 201.474C439.447 201.16 439.5 200.831 439.5 200.5C439.5 200.169 439.447 199.84 439.342 199.526L439.296 199.389C439.101 198.804 438.773 198.273 438.337 197.837L437.847 197.347C437.616 197.116 437.369 196.902 437.107 196.705L435.5 195.5L434 194.5L430.5 192.5L427.5 191L420.5 188L419.671 187.724C419.23 187.577 418.829 187.329 418.5 187C418.224 186.724 418.224 186.276 418.5 186L429.065 177.836C429.351 177.615 429.584 177.332 429.746 177.008C429.913 176.674 430 176.305 430 175.932V175.75C430 175.257 429.882 174.765 429.662 174.324C429.555 174.11 429.424 173.907 429.273 173.722L420.5 163L418.5 160L418 159L417.612 158.224C417.538 158.077 417.5 157.914 417.5 157.75C417.5 157.586 417.538 157.423 417.612 157.276L418 156.5L420.738 149.849C421.241 148.628 421.5 147.321 421.5 146L421 138.5L420.588 136.03C420.53 135.679 420.419 135.338 420.26 135.019C420.088 134.675 419.861 134.361 419.59 134.09L419 133.5C418.67 133.17 418.277 132.911 417.843 132.737L406 128L404.333 127.583C404.112 127.528 403.885 127.5 403.657 127.5C403.225 127.5 402.796 127.602 402.409 127.795C402.14 127.93 401.891 128.109 401.678 128.322L401.5 128.5L393.313 136.232C392.775 136.74 392.331 137.338 392 138L391.816 138.368C391.607 138.786 391.331 139.169 391 139.5C390.68 139.82 390.246 140 389.793 140H389.5H388.5H388.163C387.727 140 387.297 139.899 386.907 139.704C386.638 139.569 386.391 139.391 386.178 139.178L386 139L385.5 138.5L385 138C384.68 137.68 384.246 137.5 383.793 137.5H383.716C383.572 137.5 383.43 137.516 383.29 137.548L364 142L363.176 142.275C362.743 142.419 362.385 142.729 362.182 143.137C362.062 143.376 362 143.639 362 143.906V144.186C362 144.395 362.023 144.603 362.067 144.807L365.5 160.5L365.829 161.814C365.935 162.24 365.81 162.69 365.5 163L365.354 163.146C365.127 163.373 364.82 163.5 364.5 163.5C364.18 163.5 363.873 163.373 363.646 163.146L363.5 163C362.836 162.336 362.093 161.756 361.287 161.272L360 160.5L358 159.5L355.5 158.5L351.5 157L348 156L344.5 155.5L342.98 155.283C341.662 155.095 340.332 155 339 155C337.337 155 335.679 155.164 334.049 155.49L334 155.5L331.5 156L329 156.5L326.5 157L325.132 157.456C325.044 157.485 324.958 157.521 324.876 157.562L324.6 157.7C324.222 157.889 323.778 157.889 323.4 157.7C323.14 157.57 322.93 157.36 322.8 157.1L322.707 156.915C322.571 156.642 322.5 156.341 322.5 156.036V155.514C322.5 155.173 322.542 154.832 322.625 154.501L323.5 151L323.943 147.9C323.981 147.634 324 147.365 324 147.096C324 146.372 323.862 145.655 323.593 144.983L323 143.5C322.668 142.503 322.227 141.545 321.687 140.644L321 139.5L320.42 138.726C319.81 137.913 319.087 137.19 318.274 136.58C317.759 136.194 317.21 135.855 316.635 135.567L315.5 135L315.321 134.928C313.788 134.315 312.151 134 310.5 134C309.505 134 308.515 134.139 307.558 134.412L306.505 134.713C305.836 134.904 305.187 135.156 304.565 135.467C303.857 135.821 303.188 136.249 302.57 136.744L302.22 137.024C301.409 137.673 300.656 138.413 299.991 139.211C299.011 140.387 298.194 141.715 297.591 143.121L297 144.5L296.974 144.577C296.66 145.519 296.5 146.506 296.5 147.5C296.5 148.164 296.581 148.826 296.743 149.47L297 150.5L297.5 152L297.785 152.854C297.928 153.284 298.102 153.704 298.305 154.109L298.842 155.184C298.947 155.393 299.084 155.584 299.25 155.75C299.416 155.916 299.553 156.107 299.658 156.316L299.704 156.407C299.899 156.797 300 157.227 300 157.663V158.5V160.5V162V163.146C300 163.373 299.91 163.59 299.75 163.75L299.725 163.775C299.581 163.919 299.385 164 299.182 164C299.062 164 298.944 163.972 298.838 163.919L298 163.5C297.342 163.171 296.617 163 295.882 163H294.887C294.297 163 293.709 163.058 293.131 163.174L291.5 163.5L286.5 164.5L283.5 165L280.693 165.561C279.237 165.853 277.827 166.336 276.5 167C275.86 167.32 275.118 167.373 274.439 167.146L274.422 167.141C274.143 167.048 273.85 167 273.555 167H272.261C271.754 167 271.248 167.036 270.746 167.108L268 167.5L264 168L261.5 168.5L260.621 168.793C259.209 169.264 257.832 169.834 256.5 170.5L253.5 172.5L251 174.5L249.637 175.863C249.213 176.287 248.833 176.751 248.5 177.25L248.297 177.554C248.1 177.851 247.873 178.127 247.621 178.379L247.322 178.678C247.109 178.891 246.862 179.069 246.593 179.204L246.224 179.388C246.077 179.462 245.914 179.5 245.75 179.5C245.586 179.5 245.423 179.462 245.276 179.388L244.758 179.129C244.587 179.043 244.431 178.931 244.296 178.796C244.101 178.601 243.955 178.364 243.867 178.102L243.704 177.611C243.569 177.206 243.5 176.783 243.5 176.356V175L246 149.5L247 142V140.901C247 140.324 246.771 139.771 246.363 139.363C246.124 139.124 245.833 138.944 245.513 138.838L244.988 138.663C244.664 138.555 244.328 138.484 243.988 138.451L223.5 136.5H223.1C222.371 136.5 221.648 136.383 220.957 136.152L220.745 136.082C220.582 136.027 220.423 135.961 220.269 135.884C219.763 135.632 219.323 135.265 218.984 134.813L218.476 134.135C218.16 133.713 217.798 133.327 217.398 132.984L216.659 132.351C215.231 131.126 213.599 130.162 211.837 129.502L210.5 129L207.34 128.298C206.449 128.1 205.54 128 204.627 128C203.877 128 203.129 128.068 202.391 128.202L201.358 128.389C199.15 128.791 197.065 129.701 195.27 131.048C194.426 131.681 193.654 132.404 192.967 133.205L192.851 133.341C191.626 134.769 190.662 136.401 190.002 138.163L189.5 139.5L188.5 143.5L188.225 145.153C188.075 146.049 188 146.957 188 147.866C188 148.953 188.107 150.037 188.32 151.102L188.5 152L188.792 153.461C188.93 154.152 189 154.855 189 155.56V156.293C189 157.091 188.856 157.883 188.576 158.63C187.893 160.451 186.447 161.883 184.619 162.548L183.023 163.128C182.343 163.375 181.69 163.693 181.077 164.077L178 166Z" fill="#4A154B" stroke="#4A154B" stroke-width="12"/>
<path d="M185.166 220.872L184.123 221.037C182.037 221.367 181.029 221.138 180.204 219.616L174.29 209.278C174.151 209.009 174.011 208.739 173.981 208.55C173.755 207.127 175.622 206.637 176.76 206.457C182.339 205.476 184.573 202.401 184.213 200.125C184.018 198.893 182.545 197.571 180.947 196.074L177.936 193.635C173.013 189.555 170.661 185.748 170.09 182.145C168.393 171.431 182.947 163.294 195.369 161.326C199.067 160.741 200.075 160.97 201.009 162.571L207.018 172.894C207.267 173.244 207.312 173.528 207.358 173.813C207.523 174.856 206.54 175.4 205.307 175.595L204.928 175.655C199.239 176.556 197.358 178.798 197.659 180.695C197.914 182.306 199.622 183.883 203.855 187.294C208.968 191.345 211.54 195.311 212.111 198.914C213.883 210.103 197.872 218.859 185.166 220.872Z" fill="black"/>
<path d="M235.841 221.674L216.65 219.657C215.6 219.547 214.831 218.597 214.942 217.547L223.14 139.545C223.26 138.399 224.21 137.63 225.26 137.74L244.45 139.757C245.501 139.868 246.27 140.817 246.149 141.963L237.951 219.965C237.84 221.016 236.891 221.785 235.841 221.674Z" fill="black"/>
<path d="M311.854 201.566L309.111 214.327C308.699 216.127 307.995 217.21 306.79 217.533C305.863 217.781 298.974 218.037 293.17 214.921C289.019 218.717 284.309 221.171 279.58 222.438C264.095 226.588 247.561 218.296 243.561 203.367C240.579 192.239 244.163 174.085 262.523 169.166C267.16 167.923 271.977 167.726 276.015 168.333C276.398 167.535 277.158 167.033 278.271 166.735L278.734 166.611L295.149 163.703C297.61 163.243 298.582 164.274 298.88 165.387L299.004 165.851C299.967 174.637 300.831 183.052 302.47 189.172C303.961 194.736 306.05 198.45 309.439 199.231C310.491 199.447 311.66 199.73 311.908 200.657C311.958 200.842 311.94 201.145 311.854 201.566ZM282.87 202.077C281.946 199.74 281.065 197.194 280.295 194.319C279.649 191.908 279.071 189.38 278.511 186.548C276.901 184.992 274.05 184.364 271.36 185.085C265.519 186.65 263.789 193.176 265.056 197.905C266.447 203.098 271.256 206.58 277.284 204.965C279.046 204.493 280.986 203.576 282.87 202.077Z" fill="black"/>
<path d="M365.09 168.257L358.08 178.561C357.447 179.597 356.202 180.295 355.08 180.036C354.705 179.949 354.281 179.654 353.972 179.287C352.612 177.495 349.575 175.711 346.302 174.955C343.87 174.393 335.602 173.076 333.248 183.271C331.801 189.539 335.341 194.691 341.421 196.095C345.443 197.023 350.53 196.326 355.971 193.247C356.661 192.815 357.611 192.542 358.453 192.736C359.108 192.887 359.77 193.434 360.165 194.708C361.115 198.277 361.849 200.22 362.633 203.652C362.784 204.278 362.82 204.976 362.668 205.631C362.409 206.753 361.704 207.674 360.322 208.537C351.083 213.991 341.369 215.098 332.95 213.154C317.423 209.57 306.177 195.544 309.978 179.082C314.816 158.129 333.524 153.482 348.958 157.045C359.341 159.442 365.874 165.286 365.334 167.624C365.291 167.811 365.226 168.092 365.09 168.257Z" fill="black"/>
<path d="M438.398 202.043L432.555 214.243C431.962 215.406 431.293 216.095 430.345 216.245C429.871 216.32 429.272 216.221 428.643 215.932C422.887 213.344 409.879 207.92 404.562 205.652C403.934 205.363 403.244 204.695 403.109 203.841C403.034 203.367 403.149 202.863 403.533 202.219L409.213 192.669C404.813 196.184 400.826 199.246 399.08 200.494L398.556 200.869L401.978 216.948C402.158 218.085 401.55 219.154 400.412 219.334L381.613 223.38C380.57 223.546 379.502 222.937 379.227 221.814L362.975 144.979L362.945 144.789C362.795 143.841 363.513 142.852 364.446 142.607L383.26 138.656L383.449 138.626C384.492 138.461 385.386 139.194 385.646 140.222L394.115 180.189C397.522 176.539 411.908 161.819 416.08 161.159C416.839 161.038 417.752 161.283 418.706 162.395L428.603 173.949C429.072 174.458 429.352 174.997 429.442 175.566C429.592 176.514 429.159 177.457 428.111 178.206C425.921 179.72 420.982 183.515 415.788 187.545C422.756 188.58 438.206 196.533 438.762 200.041C438.852 200.61 438.752 201.209 438.398 202.043Z" fill="black"/>
<mask id="mask0_1_2" style="mask-type:alpha" maskUnits="userSpaceOnUse" x="169" y="137" width="270" height="87">
<path d="M185.166 220.872L184.123 221.037C182.037 221.367 181.029 221.138 180.204 219.616L174.29 209.278C174.151 209.009 174.011 208.739 173.981 208.55C173.755 207.127 175.622 206.637 176.76 206.457C182.339 205.476 184.573 202.401 184.213 200.125C184.018 198.893 182.545 197.571 180.947 196.074L177.936 193.635C173.013 189.555 170.661 185.748 170.09 182.145C168.393 171.431 182.947 163.294 195.369 161.326C199.067 160.741 200.075 160.97 201.009 162.571L207.018 172.894C207.267 173.244 207.312 173.528 207.358 173.813C207.523 174.856 206.54 175.4 205.307 175.595L204.928 175.655C199.239 176.556 197.358 178.798 197.659 180.695C197.914 182.306 199.622 183.883 203.855 187.294C208.968 191.345 211.54 195.311 212.111 198.914C213.883 210.103 197.872 218.859 185.166 220.872Z" fill="black"/>
<path d="M235.841 221.674L216.65 219.657C215.6 219.547 214.831 218.597 214.942 217.547L223.14 139.545C223.26 138.399 224.21 137.63 225.26 137.74L244.45 139.757C245.501 139.868 246.27 140.817 246.149 141.963L237.951 219.965C237.84 221.016 236.891 221.785 235.841 221.674Z" fill="black"/>
<path d="M311.854 201.566L309.111 214.327C308.699 216.127 307.995 217.21 306.79 217.533C305.863 217.781 298.974 218.037 293.17 214.921C289.019 218.717 284.309 221.171 279.58 222.438C264.095 226.588 247.561 218.296 243.561 203.367C240.579 192.239 244.163 174.085 262.523 169.166C267.16 167.923 271.977 167.726 276.015 168.333C276.398 167.535 277.158 167.033 278.271 166.735L278.734 166.611L295.149 163.703C297.61 163.243 298.582 164.274 298.88 165.387L299.004 165.851C299.967 174.637 300.831 183.052 302.47 189.172C303.961 194.736 306.05 198.45 309.439 199.231C310.491 199.447 311.66 199.73 311.908 200.657C311.958 200.842 311.94 201.145 311.854 201.566ZM282.87 202.077C281.946 199.74 281.065 197.194 280.295 194.319C279.649 191.908 279.071 189.38 278.511 186.548C276.901 184.992 274.05 184.364 271.36 185.085C265.519 186.65 263.789 193.176 265.056 197.905C266.447 203.098 271.256 206.58 277.284 204.965C279.046 204.493 280.986 203.576 282.87 202.077Z" fill="black"/>
<path d="M365.09 168.257L358.08 178.561C357.447 179.597 356.202 180.295 355.08 180.036C354.705 179.949 354.281 179.654 353.972 179.287C352.612 177.495 349.575 175.711 346.302 174.955C343.87 174.393 335.602 173.076 333.248 183.271C331.801 189.539 335.341 194.691 341.421 196.095C345.443 197.023 350.53 196.326 355.971 193.247C356.661 192.815 357.611 192.542 358.453 192.736C359.108 192.887 359.77 193.434 360.165 194.708C361.115 198.277 361.849 200.22 362.633 203.652C362.784 204.278 362.82 204.976 362.668 205.631C362.409 206.753 361.704 207.674 360.322 208.537C351.083 213.991 341.369 215.098 332.95 213.154C317.423 209.57 306.177 195.544 309.978 179.082C314.816 158.129 333.524 153.482 348.958 157.045C359.341 159.442 365.874 165.286 365.334 167.624C365.291 167.811 365.226 168.092 365.09 168.257Z" fill="black"/>
<path d="M438.398 202.043L432.555 214.243C431.962 215.406 431.293 216.095 430.345 216.245C429.871 216.32 429.272 216.221 428.643 215.932C422.887 213.344 409.879 207.92 404.562 205.652C403.934 205.363 403.244 204.695 403.109 203.841C403.034 203.367 403.149 202.863 403.533 202.219L409.213 192.669C404.813 196.184 400.826 199.246 399.08 200.494L398.556 200.869L401.978 216.948C402.158 218.085 401.55 219.154 400.412 219.334L381.613 223.38C380.57 223.546 379.502 222.937 379.227 221.814L362.975 144.979L362.945 144.789C362.795 143.841 363.513 142.852 364.446 142.607L383.26 138.656L383.449 138.626C384.492 138.461 385.386 139.194 385.646 140.222L394.115 180.189C397.522 176.539 411.908 161.819 416.08 161.159C416.839 161.038 417.752 161.283 418.706 162.395L428.603 173.949C429.072 174.458 429.352 174.997 429.442 175.566C429.592 176.514 429.159 177.457 428.111 178.206C425.921 179.72 420.982 183.515 415.788 187.545C422.756 188.58 438.206 196.533 438.762 200.041C438.852 200.61 438.752 201.209 438.398 202.043Z" fill="black"/>
</mask>
<g mask="url(#mask0_1_2)">
<rect x="144" y="132" width="304" height="38" fill="#36C5F0"/>
<rect x="144" y="166" width="304" height="19" fill="#ECB22E"/>
<rect x="144" y="184" width="304" height="22" fill="#2EB67D"/>
<rect x="144" y="203" width="304" height="21" fill="#E01E5A"/>
</g>
<g clip-path="url(#clip0_1_2)">
<path d="M208.848 143.151C207.769 142.903 207.1 141.831 207.349 140.753L208.849 134.257C209.097 133.179 210.169 132.509 211.247 132.758C212.325 133.007 212.995 134.079 212.746 135.157L211.246 141.653C210.997 142.731 209.926 143.4 208.848 143.151Z" stroke="white" stroke-width="3" stroke-linecap="round" stroke-linejoin="round"/>
<path d="M216.643 144.951L214.694 144.501L215.144 142.552C215.393 141.474 216.464 140.805 217.542 141.054C218.621 141.303 219.29 142.374 219.041 143.452C218.792 144.531 217.721 145.2 216.643 144.951Z" stroke="white" stroke-width="3" stroke-linecap="round" stroke-linejoin="round"/>
<path d="M201.152 146.848C202.23 147.097 202.9 148.169 202.651 149.247L201.151 155.743C200.902 156.821 199.831 157.491 198.753 157.242C197.674 156.993 197.005 155.921 197.254 154.843L198.754 148.347C199.002 147.269 200.074 146.599 201.152 146.848Z" stroke="white" stroke-width="3" stroke-linecap="round" stroke-linejoin="round"/>
<path d="M193.357 145.049L195.306 145.499L194.856 147.447C194.607 148.526 193.536 149.195 192.457 148.946C191.379 148.697 190.71 147.626 190.959 146.548C191.208 145.469 192.279 144.8 193.357 145.049Z" stroke="white" stroke-width="3" stroke-linecap="round" stroke-linejoin="round"/>
<path d="M206.848 148.848C207.097 147.769 208.169 147.1 209.247 147.349L215.743 148.849C216.821 149.098 217.491 150.169 217.242 151.247C216.993 152.326 215.921 152.995 214.843 152.746L208.347 151.246C207.269 150.997 206.599 149.926 206.848 148.848Z" stroke="white" stroke-width="3" stroke-linecap="round" stroke-linejoin="round"/>
<path d="M207.447 155.144L205.499 154.694L205.049 156.643C204.8 157.721 205.469 158.792 206.548 159.041C207.626 159.29 208.697 158.621 208.946 157.542C209.195 156.464 208.526 155.393 207.447 155.144Z" stroke="white" stroke-width="3" stroke-linecap="round" stroke-linejoin="round"/>
<path d="M203.151 141.152C203.4 140.074 202.731 139.002 201.653 138.754L195.157 137.254C194.079 137.005 193.007 137.674 192.758 138.753C192.509 139.831 193.179 140.902 194.257 141.151L200.753 142.651C201.831 142.9 202.903 142.23 203.151 141.152Z" stroke="white" stroke-width="3" stroke-linecap="round" stroke-linejoin="round"/>
<path d="M202.552 134.856L204.501 135.306L204.951 133.357C205.2 132.279 204.531 131.208 203.452 130.959C202.374 130.71 201.303 131.379 201.054 132.457C200.805 133.536 201.474 134.607 202.552 134.856Z" stroke="white" stroke-width="3" stroke-linecap="round" stroke-linejoin="round"/>
</g>
<g clip-path="url(#clip1_1_2)">
<path d="M321.26 144.833C321.778 146.514 321.893 148.295 321.593 150.029C321.244 152.104 320.324 154.041 318.936 155.623C317.548 157.204 315.747 158.368 313.735 158.985C312.053 159.503 310.273 159.618 308.539 159.318L302.012 163.963L302.212 155.954C300.994 154.684 300.093 153.144 299.583 151.46C298.969 149.447 298.927 147.303 299.462 145.268C299.997 143.233 301.088 141.387 302.613 139.937C303.884 138.719 305.424 137.818 307.108 137.308L307.745 137.113C310.448 136.447 313.301 136.802 315.759 138.108C318.216 139.415 320.105 141.582 321.065 144.195L321.26 144.833Z" stroke="white" stroke-width="3" stroke-linecap="round" stroke-linejoin="round"/>
</g>
<g clip-path="url(#clip2_1_2)">
<path d="M386.159 234.503L385.741 238.481C385.704 238.85 385.59 239.208 385.406 239.531C385.223 239.853 384.974 240.134 384.676 240.355C384.377 240.576 384.036 240.733 383.674 240.814C383.311 240.896 382.936 240.901 382.572 240.829C378.538 239.957 374.765 238.15 371.556 235.555C368.566 233.183 366.135 230.181 364.436 226.763C362.559 223.068 361.578 218.983 361.573 214.838C361.579 214.468 361.661 214.103 361.816 213.767C361.97 213.43 362.192 213.129 362.469 212.883C362.746 212.638 363.071 212.452 363.423 212.339C363.776 212.225 364.148 212.187 364.516 212.225L368.494 212.643C369.138 212.704 369.738 212.998 370.182 213.469C370.626 213.94 370.883 214.556 370.907 215.203C370.941 216.493 371.121 217.776 371.443 219.026C371.572 219.52 371.556 220.039 371.398 220.524C371.24 221.009 370.947 221.438 370.552 221.761L368.691 223.268C370.23 226.787 372.69 229.824 375.811 232.061L377.672 230.554C378.07 230.235 378.551 230.037 379.058 229.984C379.565 229.93 380.077 230.023 380.533 230.251C381.689 230.827 382.906 231.269 384.162 231.571C384.796 231.73 385.35 232.116 385.719 232.656C386.087 233.197 386.244 233.854 386.159 234.503Z" stroke="white" stroke-width="3" stroke-linecap="round" stroke-linejoin="round"/>
</g>
<g clip-path="url(#clip3_1_2)">
<path d="M245.647 246.287C245.299 246.599 244.875 246.814 244.418 246.91C243.961 247.007 243.487 246.982 243.042 246.837C242.598 246.693 242.2 246.435 241.887 246.088C241.574 245.741 241.357 245.318 241.259 244.861M256.418 231.561C257.073 229.543 256.901 227.347 255.937 225.457C254.974 223.566 253.299 222.136 251.281 221.48C249.264 220.825 247.068 220.998 245.177 221.961C243.287 222.924 241.856 224.599 241.201 226.617C238.317 235.493 233.688 236.793 233.688 236.793L256.514 244.21C256.514 244.21 253.534 240.438 256.418 231.561Z" stroke="white" stroke-width="3" stroke-linecap="round" stroke-linejoin="round"/>
</g>
<g clip-path="url(#clip4_1_2)">
<path d="M419.191 147.823L411.774 144.827L407.803 147.536L402.858 145.538L401.884 140.831L394.466 137.834M419.191 147.823L416.194 155.241C415.929 155.897 415.415 156.42 414.764 156.697C414.113 156.973 413.379 156.979 412.723 156.714L392.943 148.723C392.287 148.458 391.764 147.943 391.487 147.292C391.211 146.641 391.204 145.907 391.469 145.251L394.466 137.834M419.191 147.823L418.367 137.582C418.329 137.088 418.154 136.614 417.861 136.213C417.568 135.813 417.169 135.502 416.709 135.316L404.94 130.561C404.48 130.376 403.977 130.322 403.488 130.406C402.999 130.491 402.544 130.71 402.173 131.039L394.466 137.834" stroke="white" stroke-width="3" stroke-linecap="round" stroke-linejoin="round"/>
</g>
<defs>
<clipPath id="clip0_1_2">
<rect width="32" height="32" fill="white" transform="translate(193.009 125.811) rotate(13)"/>
</clipPath>
<clipPath id="clip1_1_2">
<rect width="32" height="32" fill="white" transform="translate(290 138.356) rotate(-17)"/>
</clipPath>
<clipPath id="clip2_1_2">
<rect width="32" height="32" fill="white" transform="translate(359.345 209) rotate(6)"/>
</clipPath>
<clipPath id="clip3_1_2">
<rect width="32" height="32" fill="white" transform="translate(236.889 214) rotate(18)"/>
</clipPath>
<clipPath id="clip4_1_2">
<rect width="32" height="32" fill="white" transform="translate(397.987 122) rotate(22)"/>
</clipPath>
</defs>
</svg>
