<svg width="523" height="293" viewBox="0 0 523 293" fill="none" xmlns="http://www.w3.org/2000/svg">
<path d="M191.848 201.485L202 202.5H208H209.974C211.794 202.5 213.423 203.629 214.062 205.333C214.348 206.096 214.415 206.923 214.256 207.722L214 209L213.561 212.955C213.521 213.314 213.559 213.677 213.673 214.02L213.761 214.283C213.914 214.742 214.243 215.122 214.676 215.338C214.89 215.445 215.123 215.509 215.362 215.526L222 216L227 216.5H229H230.293C230.746 216.5 231.18 216.32 231.5 216C231.82 215.68 232 215.246 232 214.793V213.5V211V209C232 208.028 232.324 207.083 232.921 206.316L235.1 203.514C235.366 203.172 235.598 202.805 235.791 202.418L235.851 202.299C235.95 202.1 236.035 201.894 236.106 201.683L236.329 201.012C236.441 200.676 236.464 200.318 236.394 199.971C236.176 198.879 236.878 197.815 237.967 197.586L253.47 194.322C254.488 194.108 255.486 193.806 256.452 193.419L257.5 193L269.842 186.591C278.083 182.313 288.102 183.509 295.104 189.607L297.577 191.761C298.514 192.576 299.254 193.593 299.743 194.734C300.241 195.896 300.999 196.928 301.959 197.75L302.316 198.056C303.425 199.008 304.728 199.708 306.133 200.109C307.04 200.369 307.978 200.5 308.922 200.5H309.24C310.726 200.5 312.192 200.154 313.521 199.489C314.172 199.164 314.783 198.766 315.343 198.302L326.744 188.867C328.171 187.686 330.055 187.211 331.871 187.574C333.249 187.85 334.49 188.589 335.39 189.668L336.044 190.453C336.347 190.817 336.679 191.157 337.036 191.469L338.144 192.438C339.71 193.808 341.425 194.998 343.257 195.984L347 198L348.47 198.735C348.819 198.909 349.203 199 349.593 199C349.862 199 350.13 198.956 350.386 198.871L350.482 198.839C351.142 198.619 351.71 198.186 352.095 197.607L352.5 197L359.588 186.132C359.861 185.714 360.062 185.253 360.183 184.768L360.288 184.347C360.427 183.794 360.404 183.213 360.224 182.672C360.077 182.23 359.829 181.829 359.499 181.499L359 181L357.241 179.241C356.75 178.75 356.342 178.184 356.031 177.563C355.68 176.86 355.46 176.099 355.382 175.318L355.182 173.323C355.061 172.111 355.068 170.89 355.202 169.68L355.5 167C355.775 165.625 357.122 164.74 358.493 165.034L362.516 165.896C362.829 165.963 363.156 165.922 363.443 165.779C363.798 165.601 364.061 165.282 364.169 164.9L369.432 146.241C369.477 146.081 369.5 145.916 369.5 145.75V145.424C369.5 145.152 369.392 144.892 369.2 144.7C369.069 144.569 368.905 144.476 368.725 144.431L367.249 144.062C363.787 143.197 361.665 139.706 362.492 136.233L363.5 132L363.867 129.8C363.954 129.275 363.912 128.736 363.744 128.231L363.605 127.816C363.536 127.608 363.419 127.419 363.265 127.265C363.091 127.091 362.876 126.966 362.639 126.902L357.5 125.5C352.609 124.277 348.851 120.362 347.829 115.425L346.5 109L344.5 102L343.921 100.455C343.314 98.837 342.368 97.3679 341.146 96.1461C340.385 95.3854 339.527 94.7296 338.593 94.1958L336.5 93C334.849 92.3394 333.086 92 331.307 92H330.594C329.534 92 328.475 92.0955 327.431 92.2852L323.5 93L319.298 94.1459C318.436 94.3811 317.605 94.7194 316.824 95.1536L315.918 95.6565C314.351 96.5274 313.117 97.8944 312.41 99.5427C312.138 100.178 311.948 100.846 311.846 101.53L310.725 109.001C310.576 109.993 310.259 110.952 309.787 111.838C307.862 115.447 303.704 117.254 299.752 116.2L299 116L291 114.5C286.985 113.882 283.617 111.145 282.191 107.342L281.064 104.338C280.36 102.461 280 100.473 280 98.4694V94.7086C280 93.5889 279.708 92.4887 279.152 91.5166L278.915 91.1017C278.324 90.0666 277.389 89.2709 276.273 88.8522C274.835 88.313 273.23 88.4491 271.903 89.223L269.361 90.706C268.458 91.2328 267.632 91.8823 266.908 92.6358L263.837 95.829C258.383 101.501 251.48 105.572 243.877 107.599L243.237 107.77C241.415 108.256 239.558 108.599 237.683 108.797L231.928 109.402C225.294 110.101 218.677 107.934 213.741 103.447L210.659 100.645C207.1 97.4095 202.216 96.0567 197.5 97L190.65 98.3047C188.532 98.7081 187 100.56 187 102.716C187 105.648 184.237 107.793 181.396 107.067L175.502 105.559C170.172 104.195 164.842 107.777 164.091 113.228L154.439 183.298C153.324 191.392 161.157 197.806 168.872 195.114C171.816 194.087 175.059 194.366 177.784 195.88L182.741 198.634C185.551 200.195 188.65 201.165 191.848 201.485Z" fill="#111827" stroke="#111827" stroke-width="12"/>
<path d="M174.191 192.792L158.253 190.859C157.213 190.676 156.401 189.753 156.506 188.601L166.155 110.661L166.188 110.472C166.355 109.526 167.356 108.825 168.318 108.898L187.393 111.286L187.582 111.32C188.622 111.503 189.229 112.487 189.14 113.544L185.879 139.776C189.672 139.275 193.648 139.391 197.619 140.091C215.771 143.292 225.732 156.454 222.732 173.471C219.698 190.678 202.532 200.129 185.987 197.211C181.922 196.495 177.99 195.022 174.191 192.792ZM183.624 158.095L181.33 177.187C182.853 177.943 184.333 178.398 185.845 178.665C192.463 179.832 198.274 176.178 199.408 169.749C200.125 165.683 199.273 158.905 191.52 157.538C188.779 157.054 185.887 157.422 183.624 158.095Z" fill="#3333EE"/>
<path d="M255.504 193.079L236.502 196.43C235.462 196.613 234.461 195.912 234.277 194.872L220.658 117.632C220.458 116.497 221.159 115.496 222.198 115.313L241.201 111.962C242.241 111.779 243.242 112.48 243.442 113.614L257.062 190.855C257.245 191.895 256.544 192.896 255.504 193.079Z" fill="#3333EE"/>
<path d="M319.893 145C319.893 163.72 300.885 174.184 287.253 174.184C271.605 174.184 257.877 162.856 257.877 145.96C257.877 126.184 272.661 115.912 289.557 115.912C310.773 115.912 319.893 132.52 319.893 145ZM289.557 155.848C296.373 155.848 299.445 150.28 299.445 144.808C299.445 142.984 299.061 133.672 289.269 133.672C281.205 133.672 278.901 140.488 278.901 144.808C278.901 151.432 284.085 155.848 289.557 155.848Z" fill="#3333EE"/>
<path d="M359.138 184.08L352.121 195.126C351.048 196.789 350.03 197.584 348.612 197.334C348.329 197.284 348.045 197.234 347.778 197.089C333.09 191.38 329.263 182.127 333.008 158.125L325.984 156.496C324.96 156.218 324.276 155.123 324.46 154.083L328.361 138.589C328.639 137.566 329.64 136.865 330.775 137.065L336.759 138.51C337.581 134.951 338.454 131.108 339.454 127.092C339.749 125.975 340.255 124.212 342.713 124.645L343.091 124.712L360.809 128.713C362.4 129.091 362.989 130.17 362.706 131.777C361.817 135.715 360.8 139.825 359.816 143.745L366.273 145.274C367.313 145.457 367.997 146.552 367.797 147.687L363.895 163.181C363.634 164.11 362.727 164.827 361.687 164.644L361.498 164.61L355.309 163.227C353.792 171.83 353.776 178.553 357.619 181.083C358.576 181.739 359.643 182.317 359.46 183.357C359.427 183.546 359.282 183.813 359.138 184.08Z" fill="#3333EE"/>
<mask id="mask0_1_7" style="mask-type:alpha" maskUnits="userSpaceOnUse" x="156" y="108" width="212" height="90">
<path d="M174.191 192.792L158.253 190.859C157.213 190.676 156.401 189.753 156.506 188.601L166.155 110.661L166.188 110.472C166.355 109.526 167.356 108.825 168.318 108.898L187.393 111.286L187.582 111.32C188.622 111.503 189.229 112.487 189.14 113.544L185.879 139.776C189.672 139.275 193.648 139.391 197.619 140.091C215.771 143.292 225.732 156.454 222.732 173.471C219.698 190.678 202.532 200.129 185.987 197.211C181.922 196.495 177.99 195.022 174.191 192.792ZM183.624 158.095L181.33 177.187C182.853 177.943 184.333 178.398 185.845 178.665C192.463 179.832 198.274 176.178 199.408 169.749C200.125 165.683 199.273 158.905 191.52 157.538C188.779 157.054 185.887 157.422 183.624 158.095Z" fill="#3333EE"/>
<path d="M255.504 193.079L236.502 196.43C235.462 196.613 234.461 195.912 234.277 194.872L220.658 117.632C220.458 116.497 221.159 115.496 222.198 115.313L241.201 111.962C242.241 111.779 243.242 112.48 243.442 113.614L257.062 190.855C257.245 191.895 256.544 192.896 255.504 193.079Z" fill="#3333EE"/>
<path d="M319.893 145C319.893 163.72 300.885 174.184 287.253 174.184C271.605 174.184 257.877 162.856 257.877 145.96C257.877 126.184 272.661 115.912 289.557 115.912C310.773 115.912 319.893 132.52 319.893 145ZM289.557 155.848C296.373 155.848 299.445 150.28 299.445 144.808C299.445 142.984 299.061 133.672 289.269 133.672C281.205 133.672 278.901 140.488 278.901 144.808C278.901 151.432 284.085 155.848 289.557 155.848Z" fill="#3333EE"/>
<path d="M359.138 184.08L352.121 195.126C351.048 196.789 350.03 197.584 348.612 197.334C348.329 197.284 348.045 197.234 347.778 197.089C333.09 191.38 329.263 182.127 333.008 158.125L325.984 156.496C324.96 156.218 324.276 155.123 324.46 154.083L328.361 138.589C328.639 137.566 329.64 136.865 330.775 137.065L336.759 138.51C337.581 134.951 338.454 131.108 339.454 127.092C339.749 125.975 340.255 124.212 342.713 124.645L343.091 124.712L360.809 128.713C362.4 129.091 362.989 130.17 362.706 131.777C361.817 135.715 360.8 139.825 359.816 143.745L366.273 145.274C367.313 145.457 367.997 146.552 367.797 147.687L363.895 163.181C363.634 164.11 362.727 164.827 361.687 164.644L361.498 164.61L355.309 163.227C353.792 171.83 353.776 178.553 357.619 181.083C358.576 181.739 359.643 182.317 359.46 183.357C359.427 183.546 359.282 183.813 359.138 184.08Z" fill="#3333EE"/>
</mask>
<g mask="url(#mask0_1_7)">
</g>
<g clip-path="url(#clip0_1_7)">
<path d="M320.928 97.545L321.98 101.404M328.647 95.4416L329.699 99.3008M327.589 121.987L328.641 125.846M335.308 119.884L336.359 123.743M337.884 103.98L341.743 102.928M339.636 110.412L343.496 109.36M313.442 110.641L317.301 109.589M315.194 117.073L319.054 116.021M318.121 102.456L333.558 98.2491C334.979 97.8619 336.445 98.6999 336.832 100.121L341.039 115.558C341.426 116.979 340.588 118.445 339.167 118.832L323.73 123.039C322.309 123.426 320.843 122.588 320.456 121.167L316.249 105.73C315.862 104.309 316.7 102.843 318.121 102.456ZM323.733 107.836L331.451 105.733L333.555 113.451L325.836 115.555L323.733 107.836Z" stroke="white" stroke-width="3" stroke-linecap="round" stroke-linejoin="round"/>
</g>
<g clip-path="url(#clip1_1_7)">
<path d="M271.078 94.2008C271.383 93.8106 271.762 93.4842 272.193 93.2403C272.624 92.9965 273.099 92.8399 273.59 92.7795C274.082 92.7192 274.581 92.7562 275.058 92.8886C275.535 93.0209 275.982 93.246 276.372 93.5509C276.762 93.8558 277.089 94.2346 277.332 94.6656C277.576 95.0966 277.733 95.5715 277.793 96.0631C277.854 96.5546 277.817 97.0532 277.684 97.5305C277.552 98.0077 277.327 98.4542 277.022 98.8445L261.35 118.904L254.315 121.783L255.406 114.26L271.078 94.2008Z" stroke="white" stroke-width="3" stroke-linecap="round" stroke-linejoin="round"/>
</g>
<g clip-path="url(#clip2_1_7)">
<path d="M202.532 99.6808L193.403 101.621C192.711 101.768 192.106 102.184 191.721 102.777C191.335 103.37 191.202 104.092 191.349 104.784L195.784 125.651C195.931 126.343 196.347 126.948 196.94 127.333C197.533 127.718 198.255 127.852 198.947 127.705L214.597 124.379C215.289 124.232 215.894 123.816 216.279 123.223C216.665 122.629 216.798 121.908 216.651 121.216L213.602 106.87M202.532 99.6808L213.602 106.87M202.532 99.6808L204.473 108.81L213.602 106.87" stroke="white" stroke-width="3" stroke-linecap="round" stroke-linejoin="round"/>
</g>
<g clip-path="url(#clip3_1_7)">
<path d="M327.235 185.641L313.768 196.546C312.118 197.882 310.005 198.508 307.894 198.286C305.783 198.064 303.846 197.013 302.51 195.363C301.174 193.713 300.548 191.6 300.77 189.489C300.992 187.378 302.043 185.441 303.693 184.105L317.16 173.199C318.26 172.309 319.669 171.892 321.076 172.04C322.484 172.187 323.775 172.888 324.666 173.988C325.556 175.088 325.973 176.497 325.826 177.904C325.678 179.312 324.977 180.603 323.877 181.494L310.396 192.398C309.846 192.843 309.142 193.052 308.438 192.978C307.735 192.904 307.089 192.553 306.644 192.003C306.198 191.453 305.99 190.749 306.064 190.045C306.138 189.341 306.488 188.696 307.038 188.251L319.478 178.189" stroke="white" stroke-width="3" stroke-linecap="round" stroke-linejoin="round"/>
</g>
<g clip-path="url(#clip4_1_7)">
<path d="M225.185 182.757L234.037 200.567L227.662 208.527L218.27 207.705L213.374 198.759L225.185 182.757ZM225.185 182.757L223.938 197.007M216.392 207.541L229.541 208.691L229.048 214.326L215.899 213.176L216.392 207.541ZM225.42 201.706C224.292 202.652 222.61 202.505 221.663 201.377C220.716 200.249 220.863 198.567 221.992 197.62C223.12 196.673 224.802 196.821 225.748 197.949C226.695 199.077 226.548 200.759 225.42 201.706Z" stroke="white" stroke-width="3" stroke-linecap="round" stroke-linejoin="round"/>
</g>
<defs>
<clipPath id="clip0_1_7">
<rect width="32" height="32" fill="white" transform="translate(309 99.4137) rotate(-15.2439)"/>
</clipPath>
<clipPath id="clip1_1_7">
<rect width="32" height="32" fill="white" transform="translate(248.093 92.993) rotate(-7)"/>
</clipPath>
<clipPath id="clip2_1_7">
<rect width="32" height="32" fill="white" transform="translate(185.023 100.676) rotate(-12)"/>
</clipPath>
<clipPath id="clip3_1_7">
<rect width="32" height="32" fill="white" transform="translate(300.345 168) rotate(6)"/>
</clipPath>
<clipPath id="clip4_1_7">
<rect width="32" height="32" fill="white" transform="translate(225.513 179) rotate(50)"/>
</clipPath>
</defs>
</svg>
