<svg width="581" height="355" viewBox="0 0 581 355" fill="none" xmlns="http://www.w3.org/2000/svg">
<path d="M169.5 164L165.265 166.695C164.477 167.196 164 168.066 164 169V171.5V174.5V177.534C164 178.176 164.063 178.817 164.189 179.447C164.395 180.476 164.765 181.464 165.286 182.375L165.851 183.364C166.283 184.12 166.773 184.842 167.317 185.521L168.5 187L172 191.5L173.267 193.611C173.419 193.865 173.5 194.157 173.5 194.454C173.5 194.808 173.385 195.153 173.172 195.437L172.555 196.26C172.189 196.749 171.731 197.162 171.207 197.476L170.73 197.762C169.917 198.25 169.02 198.58 168.085 198.736L167.411 198.848C166.805 198.949 166.191 199 165.577 199H164H163.163C162.727 199 162.297 199.101 161.907 199.296L161.678 199.411C161.56 199.47 161.452 199.548 161.359 199.641C161.129 199.871 161 200.183 161 200.508V200.711C161 200.902 161.032 201.092 161.094 201.273L165.5 214L165.55 214.149C165.838 215.014 166.458 215.729 167.274 216.137C167.751 216.376 168.278 216.5 168.812 216.5H170.5H176.5L179.665 216.078C182.547 215.694 185.382 215.012 188.124 214.045L190.362 213.255C191.783 212.753 193.145 212.097 194.422 211.298L196.238 210.164C196.412 210.055 196.599 209.967 196.794 209.902C197.555 209.648 198.391 209.76 199.058 210.205L199.5 210.5C200.827 211.495 202.005 212.673 203 214C203.652 214.978 204 216.127 204 217.303V218.249C204 218.749 203.959 219.248 203.876 219.741L203.5 222L202.5 225.5L202.083 228C202.028 228.333 202 228.669 202 229.007V229.356C202 229.783 202.069 230.206 202.204 230.611L202.312 230.937C202.436 231.307 202.644 231.644 202.92 231.92C203.297 232.297 203.784 232.544 204.311 232.626L226 236L227.331 236.266C228.093 236.419 228.793 236.793 229.343 237.343C229.775 237.775 230.102 238.306 230.295 238.886C230.43 239.291 230.5 239.717 230.5 240.144V241.5V244.5V245.246C230.5 245.729 230.692 246.192 231.033 246.533C231.335 246.835 231.733 247.021 232.158 247.059L259.5 249.5H259.997C260.612 249.5 261.174 249.153 261.448 248.603C261.483 248.534 261.512 248.463 261.536 248.391L261.75 247.75C261.916 247.251 262.047 246.74 262.141 246.222L263 241.5L263.5 238L264.405 232.117C264.467 231.716 264.655 231.345 264.941 231.059C265.299 230.701 265.784 230.5 266.29 230.5H273L282 230L306 227.5L314.5 225.5L319 225H322.155C322.706 225 323.245 225.163 323.703 225.469C324.22 225.813 324.607 226.32 324.803 226.909L325 227.5L325.5 229.5L326 232L330.465 251.844C330.488 251.948 330.5 252.054 330.5 252.16C330.5 252.384 330.552 252.604 330.652 252.804L330.911 253.322C330.97 253.44 331.048 253.548 331.141 253.641C331.371 253.871 331.683 254 332.008 254H332.333C332.444 254 332.555 253.991 332.664 253.973L335.5 253.5L337.336 253.041C337.445 253.014 337.551 252.975 337.651 252.925C338.171 252.664 338.5 252.132 338.5 251.551V251.5V251C338.5 250.417 338.907 249.913 339.478 249.79L351.662 247.18C352.155 247.074 352.658 247.315 352.883 247.766C352.96 247.92 353 248.089 353 248.261V248.301C353 248.729 353.242 249.121 353.626 249.313C353.867 249.434 354.144 249.464 354.406 249.398L356 249L359.725 248.069C359.905 248.024 360.069 247.931 360.2 247.8L360.216 247.784C360.398 247.602 360.5 247.356 360.5 247.099C360.5 246.732 360.707 246.396 361.036 246.232L361.322 246.089C361.44 246.03 361.566 245.987 361.695 245.961L363.07 245.686C363.688 245.562 364.318 245.5 364.949 245.5C365.647 245.5 366.344 245.576 367.026 245.728L370.5 246.5L375 247H379.5C382.158 247 384.808 246.698 387.398 246.101L390 245.5L391.452 244.941C394.807 243.651 398.009 241.994 401 240L402.314 238.851C404.099 237.288 405.704 235.532 407.1 233.613C408.363 231.876 409.448 230.014 410.337 228.058L410.373 227.979C411.123 226.329 411.735 224.62 412.202 222.869L413.5 218L414 214.5L414.5 210.5V207L412.549 167.97C412.516 167.325 412.421 166.684 412.264 166.058L412.067 165.269C412.023 165.09 411.958 164.917 411.876 164.752L411.793 164.585C411.603 164.205 411.295 163.897 410.915 163.707C410.642 163.571 410.341 163.5 410.036 163.5H408.5H401.5H398.5C394.943 163.5 391.496 162.269 388.743 160.017L387.5 159L386.5 158C386.171 157.671 385.923 157.27 385.776 156.829L385.5 156L385.064 154.693C385.022 154.565 385 154.431 385 154.296C385 154.101 384.955 153.909 384.867 153.735L384.625 153.249C384.542 153.083 384.446 152.924 384.338 152.773L379.5 146L378.797 144.946C378.6 144.649 378.373 144.373 378.121 144.121L377.822 143.822C377.609 143.609 377.362 143.431 377.093 143.296L376.947 143.224C376.653 143.077 376.329 143 376 143H374.5C373.836 143 373.174 142.919 372.53 142.757L371.5 142.5L369 142L367.5 141.5L366.386 141.129C366.13 141.043 365.862 141 365.593 141C365.203 141 364.819 141.091 364.47 141.265L364.256 141.372C364.086 141.457 363.923 141.556 363.768 141.667L355.186 147.866C355.062 147.955 354.946 148.054 354.838 148.162L354.762 148.238C354.274 148.726 353.612 149 352.922 149C352.643 149 352.365 148.955 352.099 148.866L352.018 148.839C351.358 148.619 350.79 148.186 350.405 147.607L350 147L349.981 146.971C349.328 145.993 348.581 145.081 347.75 144.25C346.919 143.419 346.007 142.672 345.029 142.019L343.5 141L342.233 140.366C341.085 139.793 339.853 139.408 338.582 139.226C337.532 139.076 336.467 139.067 335.414 139.198L334.647 139.294C333.554 139.431 332.482 139.707 331.459 140.116C330.821 140.372 330.204 140.678 329.614 141.031L328 142L327.231 142.513C326.745 142.837 326.292 143.208 325.879 143.621C325.296 144.204 324.797 144.866 324.396 145.586L323.501 147.198C322.837 148.394 322.332 149.672 322 151C321.669 152.986 321.669 155.014 322 157L322.227 157.907C322.401 158.603 322.273 159.34 321.875 159.937C321.629 160.306 321.292 160.604 320.895 160.802L320.259 161.121C319.756 161.372 319.216 161.541 318.66 161.62L316 162L311.5 162.5H310.35C309.785 162.5 309.221 162.444 308.666 162.333L307.646 162.129C307.22 162.044 306.814 161.876 306.451 161.634C305.835 161.223 305.373 160.618 305.138 159.915L305 159.5L304 154.5L303 149.5L302 145.5L301.239 142.836C301.082 142.288 300.788 141.788 300.385 141.385C300.13 141.13 299.836 140.918 299.513 140.756L299 140.5C298.342 140.171 297.617 140 296.882 140H296.86C296.62 140 296.381 140.018 296.144 140.053L276.5 143L274.5 143.5L273.186 143.938C273.062 143.979 272.941 144.029 272.824 144.088C272.289 144.355 271.855 144.789 271.588 145.324C271.529 145.441 271.479 145.562 271.438 145.686L271.348 145.957C271.117 146.648 271 147.371 271 148.1V148.286C271 148.761 271.043 149.235 271.128 149.703L273 160L273.5 162.5L273.901 164.503C273.965 164.825 273.92 165.159 273.773 165.453C273.598 165.803 273.291 166.07 272.92 166.193L272.386 166.371C272.131 166.457 271.862 166.5 271.593 166.5H271.464C271.159 166.5 270.858 166.429 270.585 166.293C270.205 166.103 269.897 165.795 269.707 165.415L269.5 165C268.837 164.006 268.025 163.12 267.092 162.374L266 161.5C264.004 159.837 261.865 158.352 259.609 157.063L259.5 157L254 154.5L251.537 153.577C250.515 153.193 249.458 152.91 248.38 152.73C247.462 152.577 246.532 152.5 245.601 152.5H243L238.5 153L236 153.5C234.346 153.831 232.647 153.872 230.979 153.622L223.5 152.5L219.942 151.709C219.316 151.57 218.71 151.355 218.137 151.069L217.731 150.865C217.247 150.623 216.805 150.305 216.422 149.922C215.817 149.317 215.377 148.568 215.142 147.746L214.5 145.5L214.096 143.076C214.032 142.693 213.938 142.315 213.815 141.946L213.729 141.686C213.577 141.231 213.365 140.798 213.099 140.398L212.977 140.215C212.662 139.743 212.257 139.338 211.785 139.023C211.268 138.679 210.682 138.45 210.068 138.354L185.981 134.575C185.661 134.525 185.337 134.5 185.013 134.5H184.644C184.217 134.5 183.794 134.569 183.389 134.704L183.077 134.808C182.698 134.934 182.353 135.147 182.07 135.43C181.699 135.801 181.45 136.276 181.356 136.792L180.5 141.5L179 150.5L178.113 155.378C178.038 155.792 177.933 156.2 177.8 156.6C177.277 158.169 176.327 159.561 175.056 160.62L174.746 160.879C174.25 161.292 173.716 161.658 173.152 161.971L169.5 164Z" fill="#DC2323" stroke="#DC2323" stroke-width="12"/>
<path d="M170.972 215.695L169.918 215.634C167.809 215.514 166.873 215.076 166.391 213.413L162.809 202.054C162.73 201.761 162.651 201.468 162.662 201.277C162.744 199.839 164.672 199.757 165.822 199.823C171.482 200.05 174.319 197.52 174.451 195.22C174.522 193.974 173.363 192.369 172.12 190.567L169.697 187.544C165.754 182.511 164.264 178.291 164.473 174.649C165.092 163.818 181.043 158.961 193.599 159.679C197.336 159.893 198.273 160.331 198.845 162.094L202.522 173.459C202.692 173.853 202.676 174.141 202.659 174.428C202.599 175.482 201.523 175.806 200.277 175.734L199.894 175.712C194.143 175.384 191.829 177.174 191.719 179.091C191.626 180.721 192.96 182.624 196.372 186.857C200.506 191.902 202.177 196.324 201.968 199.966C201.322 211.276 183.815 216.429 170.972 215.695Z" fill="#F9C210"/>
<path d="M224.358 234.557L205.387 231.415C204.433 231.311 203.668 230.358 203.783 229.308L203.804 229.117L215.885 154.147C216.096 153.108 217.049 152.343 218.003 152.448L218.194 152.469L234.036 155.075C238.307 153.998 242.59 153.694 246.598 154.134C263.393 155.975 277.132 169.843 275.228 187.211C273.324 204.579 259.811 214.203 241.775 212.226C237.767 211.787 233.917 210.785 230.512 209.253L226.666 232.879C226.445 234.013 225.503 234.683 224.358 234.557ZM236.458 172.627L233.316 191.598C235.301 192.877 237.984 193.944 240.656 194.237C241.42 194.321 250.581 195.325 251.732 184.828C252.453 178.243 247.993 173.119 241.313 172.387C239.786 172.219 238.133 172.328 236.458 172.627Z" fill="#F9C210"/>
<path d="M303.233 227.746L284.182 229.524C283.031 229.567 282.043 228.836 281.999 227.685L277.426 177.902C277.382 176.751 278.209 175.759 279.264 175.719L290.371 174.723C295.489 172.896 300.449 171.94 305.245 171.758C308.507 171.635 311.687 171.899 314.687 172.458C316.14 172.787 316.745 173.533 316.788 174.684C316.803 175.068 316.721 175.455 316.643 175.938L314.373 189.57C314.136 190.924 313.202 191.632 312.051 191.675C311.763 191.686 311.376 191.605 310.989 191.523C309.436 191.102 307.794 190.876 306.163 190.937C304.82 190.988 303.484 191.231 301.964 191.673L305.071 225.563L305.079 225.755C305.119 226.81 304.288 227.706 303.233 227.746Z" fill="#F9C210"/>
<path d="M341.46 221.83L322.29 220.397L322.099 220.373C321.052 220.242 320.397 219.289 320.433 218.23L323.861 171.542C324.004 170.399 324.873 169.637 326.028 169.685L345.199 171.118L345.389 171.142C346.342 171.261 347.092 172.226 346.973 173.178L343.533 219.961L343.509 220.152C343.39 221.105 342.425 221.855 341.46 221.83ZM350.68 155.937C349.714 163.653 342.639 169.153 334.924 168.186C327.113 167.208 321.613 160.134 322.579 152.418C323.557 144.607 330.632 139.108 338.443 140.086C346.158 141.052 351.658 148.126 350.68 155.937Z" fill="#F9C210"/>
<path d="M365.012 241.618L367.226 232.533C367.489 231.254 368.476 230.484 369.527 230.383C369.718 230.365 369.919 230.442 370.11 230.424C372.754 230.845 375.075 230.912 377.177 230.71C385.204 229.939 389.447 224.903 391.006 217.038C388.136 218.278 384.942 219.163 381.884 219.457C367.263 220.86 352.852 210.381 351.146 192.606C350.036 181.043 355.569 166.336 375.732 164.401C380.319 163.96 384.797 164.399 388.68 165.665C388.866 164.587 389.708 164.313 390.568 164.231L391.045 164.185C391.045 164.185 406.818 163.732 409.025 163.616C410.564 163.565 411.638 164.716 411.776 166.149C413.199 182.986 414.773 200.388 413.377 214.988C411.403 235.623 397.544 244.957 382.636 246.388C377.094 246.92 371.45 246.401 366.193 244.88C365.305 244.676 365.041 243.93 364.967 243.165C364.912 242.592 364.953 242.009 365.012 241.618ZM391.144 199.376L391.594 199.044C391.418 195.203 391.11 190.989 390.698 186.689C389.884 182.234 385.928 180.203 381.819 180.597C375.799 181.175 372.922 186.37 373.436 191.721C373.793 195.448 376.074 203.137 384.484 202.33C386.777 202.11 389.734 200.765 391.144 199.376Z" fill="#F9C210"/>
<g clip-path="url(#clip0_1_2)">
<path fill-rule="evenodd" clip-rule="evenodd" d="M209.974 145.031C210.128 144.161 209.546 143.331 208.677 143.177L186.617 139.288C185.747 139.134 184.917 139.716 184.763 140.586L183.096 150.04C182.943 150.909 183.524 151.74 184.394 151.893L206.454 155.783C207.324 155.936 208.154 155.355 208.307 154.485L209.974 145.031ZM199.778 138.359L210.808 140.304C212.549 140.611 213.711 142.27 213.404 144.011L211.181 156.616C210.874 158.358 209.215 159.519 207.474 159.212L182.263 154.767C180.522 154.46 179.36 152.801 179.667 151.06L181.89 138.454C182.197 136.713 183.856 135.551 185.597 135.858L196.627 137.803L199.778 138.359ZM202.56 150.222L205.712 150.778L206.267 147.627L203.116 147.071L202.56 150.222ZM198.389 146.237C197.519 146.084 196.689 146.666 196.535 147.535C196.382 148.405 196.963 149.235 197.833 149.389C198.703 149.542 199.533 148.961 199.687 148.091C199.84 147.221 199.259 146.391 198.389 146.237ZM192.086 145.126L193.662 145.404L193.106 148.555L191.53 148.277L191.253 149.853L188.101 149.297L188.379 147.722L186.803 147.444L187.359 144.293L188.935 144.57L189.213 142.995L192.364 143.55L192.086 145.126Z" fill="white"/>
</g>
<g clip-path="url(#clip1_1_2)">
<path d="M333.429 229.574L332.892 226.813L335.653 226.277L336.19 229.037L333.429 229.574ZM346.658 224.137L349.381 223.608L349.918 226.369L347.195 226.898L346.658 224.137ZM353.743 231.316L352.677 225.833L355.438 225.296L357.577 236.301L354.817 236.838L355.346 239.561L352.585 240.097L353.122 242.858L355.882 242.321L356.419 245.082L359.18 244.546L359.709 247.268L354.188 248.342L353.658 245.619L350.936 246.148L350.399 243.387L339.394 245.527L339.93 248.287L337.169 248.824L337.699 251.547L332.215 252.613L331.686 249.89L334.447 249.353L333.91 246.593L336.633 246.063L336.096 243.302L333.373 243.832L332.844 241.109L330.083 241.646L327.944 230.64L330.705 230.104L331.771 235.587L334.494 235.058L333.964 232.335L336.725 231.799L336.19 229.037L338.949 228.501L339.486 231.262L344.97 230.196L344.433 227.435L347.195 226.898L347.73 229.659L350.453 229.13L350.982 231.853L353.743 231.316ZM340.553 236.745L340.016 233.984L337.256 234.521L337.792 237.282L340.553 236.745ZM348.798 235.143L348.261 232.382L345.5 232.919L346.037 235.679L348.798 235.143Z" fill="white"/>
</g>
<g clip-path="url(#clip2_1_2)">
<path d="M246.143 216.397L245.448 220.336M254.021 217.786L253.327 221.725M241.744 241.345L241.049 245.285M249.622 242.735L248.928 246.674M258.735 229.448L262.674 230.143M257.577 236.014L261.516 236.708M233.786 225.049L237.725 225.744M232.628 231.615L236.568 232.309M241.509 219.642L257.266 222.42C258.716 222.676 259.685 224.059 259.429 225.509L256.651 241.266C256.395 242.716 255.012 243.685 253.562 243.429L237.805 240.651C236.354 240.395 235.386 239.012 235.642 237.562L238.42 221.805C238.676 220.354 240.059 219.386 241.509 219.642ZM244.291 226.901L252.169 228.291L250.78 236.169L242.901 234.78L244.291 226.901Z" stroke="white" stroke-width="3" stroke-linecap="round" stroke-linejoin="round"/>
</g>
<g clip-path="url(#clip3_1_2)">
<path d="M284.609 168.687L295.145 167.018M289.043 162.585L289.877 167.852M275.587 145.816L296.658 142.479C298.113 142.249 299.479 143.241 299.709 144.696L301.795 157.865C302.025 159.32 301.033 160.686 299.578 160.916L278.507 164.253C277.053 164.484 275.687 163.491 275.457 162.037L273.371 148.867C273.14 147.413 274.133 146.047 275.587 145.816Z" stroke="white" stroke-width="3" stroke-linecap="round" stroke-linejoin="round"/>
</g>
<g clip-path="url(#clip4_1_2)">
<path d="M373.239 160.735L382.275 153.927L375.466 144.891M364.903 143.407L355.868 150.215L362.676 159.251" stroke="white" stroke-width="3" stroke-linecap="round" stroke-linejoin="round"/>
</g>
<defs>
<clipPath id="clip0_1_2">
<rect width="32" height="32" fill="white" transform="translate(183.557 129) rotate(10)"/>
</clipPath>
<clipPath id="clip1_1_2">
<rect width="40" height="40" fill="white" transform="translate(326 220.632) rotate(-11)"/>
</clipPath>
<clipPath id="clip2_1_2">
<rect width="32" height="32" fill="white" transform="translate(234.557 213) rotate(10)"/>
</clipPath>
<clipPath id="clip3_1_2">
<rect width="32" height="32" fill="white" transform="translate(269.694 142.7) rotate(-9)"/>
</clipPath>
<clipPath id="clip4_1_2">
<rect width="32" height="32" fill="white" transform="translate(355.454 134) rotate(8)"/>
</clipPath>
</defs>
</svg>
