<svg width="631" height="349" viewBox="0 0 631 349" fill="none" xmlns="http://www.w3.org/2000/svg">
<path d="M135.645 167.624L135.021 168.526C134.341 169.507 133.732 170.536 133.198 171.604L133 172L132.295 173.586C131.435 175.522 130.808 177.553 130.43 179.638C130.144 181.209 130 182.804 130 184.401V186L130.5 192.5L130.944 194.721C131.314 196.568 131.893 198.366 132.673 200.08C133.554 202.019 134.683 203.834 136.031 205.482L137.005 206.673C138 207.889 139.1 209.014 140.292 210.036C141.429 211.01 142.645 211.887 143.929 212.657L144.5 213L148 214.5L152 216C154.657 216.664 157.385 217 160.123 217H160.5H163H163.646C163.873 217 164.09 217.09 164.25 217.25C164.41 217.41 164.5 217.627 164.5 217.854V218.137C164.5 218.376 164.444 218.611 164.338 218.825L164 219.5L163.431 220.639C163.144 221.212 162.898 221.805 162.695 222.414L162.193 223.92C162.065 224.304 162 224.706 162 225.111C162 225.696 162.136 226.272 162.398 226.795L162.5 227L162.911 227.822C162.97 227.94 163.048 228.048 163.141 228.141L163.189 228.189C163.388 228.388 163.5 228.658 163.5 228.939V229.191C163.5 229.638 163.138 230 162.691 230C162.565 230 162.442 230.029 162.329 230.085L161.61 230.445C161.538 230.481 161.458 230.5 161.377 230.5C161.152 230.5 160.952 230.644 160.881 230.857L160.5 232L160.474 232.077C160.16 233.019 160 234.007 160 235C160 235.993 160.16 236.981 160.474 237.923L160.5 238L161 239.5L161.455 240.865C161.485 240.955 161.521 241.042 161.563 241.127C161.839 241.678 162.353 242.071 162.957 242.191L179.5 245.5L180.885 245.777C181.627 245.925 182.381 246 183.137 246H184.356C184.783 246 185.206 245.931 185.611 245.796C186.196 245.601 186.727 245.273 187.163 244.837L187.204 244.796C187.401 244.599 187.578 244.384 187.732 244.152L188.5 243C188.832 242.335 189.091 241.636 189.271 240.915L189.5 240L189.944 238.222C189.981 238.075 190 237.923 190 237.771V237.707C190 237.254 189.82 236.82 189.5 236.5C189.18 236.18 189 235.746 189 235.293V235C189 234.694 189.173 234.413 189.447 234.276L189.792 234.104C189.93 234.035 190.056 233.944 190.164 233.836L190.204 233.796C190.399 233.601 190.545 233.364 190.633 233.102L190.918 232.245C190.973 232.082 191.039 231.923 191.116 231.769C191.368 231.263 191.5 230.706 191.5 230.141V229V228.09C191.5 227.366 191.411 226.645 191.236 225.943L191.109 225.438C191.037 225.147 190.932 224.865 190.798 224.596L190.589 224.178C190.53 224.06 190.452 223.952 190.359 223.859C190.129 223.629 190 223.317 190 222.992V222V221.366C190 220.793 190.092 220.223 190.274 219.678C190.424 219.228 190.633 218.8 190.897 218.405L191.286 217.821C191.428 217.608 191.541 217.377 191.622 217.134L191.775 216.676C191.919 216.243 192.229 215.885 192.637 215.682C192.876 215.562 193.139 215.5 193.406 215.5H194H196H197.5H197.642C198.527 215.5 199.393 215.762 200.13 216.254C200.376 216.417 200.605 216.605 200.814 216.814L200.879 216.879C201.29 217.29 201.765 217.633 202.286 217.893L202.5 218L202.858 218.179C203.285 218.392 203.733 218.558 204.196 218.674C205.056 218.889 205.951 218.927 206.827 218.785L222.827 216.19C223.608 216.064 224.377 215.874 225.128 215.624L226.017 215.328C226.669 215.11 227.29 214.807 227.862 214.425L228.222 214.185C228.407 214.062 228.579 213.921 228.736 213.764C229.233 213.267 229.873 212.938 230.566 212.822L232.5 212.5L234.131 212.174C234.709 212.058 235.297 212 235.887 212H236.882C237.617 212 238.342 212.171 239 212.5L239.187 212.625C240.06 213.207 240.874 213.874 241.616 214.616C242.204 215.204 242.838 215.746 243.511 216.235L244.702 217.101C246.893 218.695 249.263 220.026 251.765 221.069L254 222C256.654 222.995 259.433 223.619 262.257 223.855L264 224H268.5H270H270.683C271.206 224 271.708 224.208 272.078 224.578C272.353 224.853 272.541 225.204 272.617 225.586L273.5 230L274 233L274.5 236.5L274.951 238.753C274.983 238.917 275.038 239.076 275.113 239.226C275.359 239.717 275.807 240.077 276.34 240.21L277.371 240.468C277.457 240.489 277.544 240.5 277.633 240.5C278.139 240.5 278.577 240.853 278.684 241.348L280.935 251.701C280.978 251.9 281.046 252.092 281.137 252.273L281.257 252.514C281.415 252.829 281.671 253.085 281.986 253.243C282.319 253.409 282.698 253.457 283.061 253.378L305.213 248.562C305.4 248.522 305.572 248.428 305.707 248.293C305.895 248.105 306 247.851 306 247.586V247.186C306 247.062 305.988 246.939 305.965 246.818L304.117 237.112C304.044 236.729 304.165 236.335 304.441 236.059C304.48 236.02 304.522 235.983 304.567 235.95L304.861 235.73C305.279 235.416 305.603 234.994 305.797 234.509C305.931 234.173 306 233.814 306 233.452V232.5V231C306 230.668 305.959 230.337 305.879 230.015L305.5 228.5L305 227L304.794 225.971C304.599 224.993 304.5 223.998 304.5 223C304.5 222.694 304.673 222.413 304.947 222.276L305.224 222.138C305.405 222.047 305.606 222 305.809 222H307.5H308.078C308.689 222 309.295 222.098 309.875 222.292C310.29 222.43 310.72 222.52 311.157 222.56L316 223H320.837C322.276 223 323.712 222.87 325.128 222.613C327.365 222.206 329.532 221.484 331.565 220.467L333.5 219.5L335.557 218.618C336.516 218.208 337.422 217.684 338.256 217.058C338.751 216.687 339.22 216.28 339.658 215.842L340 215.5L340.55 214.95C340.838 214.662 341.229 214.5 341.637 214.5C341.876 214.5 342.111 214.556 342.325 214.662L344 215.5C345.66 216.164 347.398 216.612 349.172 216.834L350.5 217H354.5H357.438C358.808 217 360.172 216.832 361.5 216.5L362.772 216.182C363.256 216.061 363.752 216 364.25 216H364.502C364.833 216 365.162 216.041 365.483 216.121L366.019 216.255C366.65 216.413 367.2 216.8 367.561 217.341C367.847 217.771 368 218.275 368 218.792V220V223.5V224.916C368 225.637 368.071 226.356 368.213 227.063C368.403 228.017 368.72 228.941 369.156 229.811L369.337 230.175C369.778 231.056 370.31 231.888 370.925 232.657L372 234L372.596 234.596C373.528 235.528 374.58 236.331 375.724 236.985C376.902 237.659 378.168 238.167 379.484 238.496L381.5 239L384.432 239.977C385.471 240.324 386.558 240.5 387.653 240.5C388.874 240.5 390.086 240.28 391.229 239.851L393.5 239L394.301 238.6C395.757 237.871 397.087 236.913 398.239 235.761L398.382 235.618C398.794 235.206 399.175 234.766 399.524 234.301C400.172 233.437 400.703 232.492 401.104 231.49L401.5 230.5L402 228.5C402.332 227.172 402.5 225.808 402.5 224.438V224V221.5V219.5V218V216.644C402.5 216.217 402.569 215.794 402.704 215.389L402.776 215.171C402.923 214.73 403.171 214.329 403.5 214C403.829 213.671 404.23 213.423 404.671 213.276L405.5 213C406.496 212.668 407.442 212.205 408.316 211.623L408.5 211.5L409.102 211.099C409.695 210.704 410.204 210.195 410.599 209.602L410.754 209.369C410.917 209.124 411.047 208.858 411.14 208.579L411.149 208.552C411.377 207.87 411.825 207.284 412.423 206.885C412.803 206.631 413.233 206.461 413.684 206.386L415.165 206.139C415.721 206.047 416.283 206 416.846 206H418.5H419.642C420.527 206 421.393 206.262 422.13 206.754C422.376 206.917 422.605 207.105 422.814 207.314L424.5 209C425.825 210.657 427.399 212.099 429.164 213.276L429.5 213.5L431.727 214.614C432.908 215.204 434.128 215.709 435.38 216.127C437.122 216.707 438.918 217.115 440.74 217.343L442 217.5L446 218C448.325 218 450.64 217.715 452.896 217.151L455.5 216.5L457.826 215.836C458.607 215.612 459.366 215.317 460.092 214.954L461.065 214.467C461.684 214.158 462.249 213.751 462.739 213.261L462.991 213.009C463.651 212.349 464.12 211.521 464.346 210.615C464.448 210.207 464.5 209.787 464.5 209.366V207V202C464.5 200.337 464.664 198.679 464.99 197.049L465 197L465.288 194.985C465.429 193.996 465.5 192.999 465.5 192C465.5 191.342 465.653 190.694 465.947 190.106L466.093 189.815C466.362 189.275 466.717 188.783 467.144 188.356L468.225 187.275C468.74 186.76 469.204 186.195 469.608 185.588C470.524 184.214 471.121 182.651 471.355 181.015L471.381 180.835C471.46 180.279 471.5 179.718 471.5 179.157V179.057C471.5 177.368 471.178 175.694 470.551 174.126L470.5 174L470.42 173.814C469.475 171.609 468.331 169.496 467 167.5L465.598 165.818C464.868 164.941 464.059 164.132 463.182 163.402C462.065 162.47 460.843 161.671 459.541 161.021L457.5 160C455.179 159.005 452.725 158.358 450.215 158.079L449.5 158H448.14C445.725 158 443.322 158.337 441 159L438 160L435.5 161L433 162L431 163L428.5 164.5L427 165.5L425 167L423.821 167.786C423.608 167.928 423.377 168.041 423.134 168.122L422.905 168.198C422.326 168.391 421.693 168.346 421.146 168.073C421.049 168.024 420.948 167.983 420.845 167.948L420.405 167.802C419.826 167.609 419.346 167.193 419.073 166.646C419.024 166.549 418.983 166.448 418.948 166.345L418.5 165L418.243 163.97C418.081 163.326 418 162.664 418 162C418 161.336 418.081 160.674 418.243 160.03L424 137L424.588 134.942C424.861 133.985 425 132.995 425 132C425 131.674 424.904 131.355 424.723 131.084L424.149 130.223C424.05 130.075 423.937 129.937 423.811 129.811C423.605 129.605 423.367 129.434 423.107 129.304L422.963 129.232C422.656 129.078 422.329 128.968 421.991 128.905L406.5 126L404.29 125.558C404.097 125.519 403.901 125.5 403.704 125.5H403.663C403.227 125.5 402.797 125.601 402.407 125.796C402.138 125.931 401.891 126.109 401.678 126.322L401 127C400.68 127.32 400.246 127.5 399.793 127.5H399.5C399.194 127.5 398.913 127.327 398.776 127.053L398.575 126.651C398.525 126.551 398.486 126.445 398.459 126.336L398 124.5L397.5 123L397.108 121.823C397.036 121.608 396.949 121.398 396.848 121.195C396.617 120.735 396.314 120.314 395.95 119.95L395.5 119.5C394.848 118.848 394.404 118.017 394.223 117.113L394.116 116.582C394.039 116.195 393.926 115.816 393.78 115.449L393.147 113.867C393.05 113.625 392.905 113.405 392.721 113.221C392.575 113.075 392.406 112.953 392.221 112.86L392.03 112.765C391.681 112.591 391.297 112.5 390.907 112.5C390.638 112.5 390.37 112.543 390.114 112.629L389.573 112.809C389.193 112.936 388.831 113.113 388.497 113.335L387.965 113.69C387.66 113.893 387.414 114.172 387.25 114.5C387.086 114.828 386.84 115.107 386.535 115.31L386.299 115.467C385.778 115.815 385.166 116 384.54 116H384.5H384H383C382.338 116 381.68 116.107 381.051 116.316L380.5 116.5L379.524 116.825C379.176 116.941 378.845 117.103 378.54 117.307L377.968 117.688C377.663 117.892 377.304 118 376.938 118C376.65 118 376.366 117.933 376.108 117.804L376 117.75C375.671 117.586 375.309 117.5 374.941 117.5H374.5H372.5H372.144C371.717 117.5 371.294 117.569 370.889 117.704L370.244 117.919C370.083 117.972 369.938 118.062 369.818 118.182C369.615 118.385 369.5 118.662 369.5 118.95V120.5C369.5 121.158 369.653 121.806 369.947 122.394L370.165 122.829C370.385 123.27 370.5 123.757 370.5 124.25V124.441C370.5 124.809 370.414 125.171 370.25 125.5C370.086 125.829 370 126.191 370 126.559V126.986C370 127.327 370.042 127.668 370.125 127.999L370.5 129.5L371 131.5L371.5 133.5L371.617 133.966C371.867 134.968 371.827 136.02 371.5 137L371.404 137.478C371.138 138.81 371.171 140.183 371.5 141.5L372 143L372.23 143.691C372.409 144.227 372.5 144.788 372.5 145.353C372.5 145.783 372.447 146.211 372.343 146.628L372.135 147.459C372.046 147.817 371.895 148.157 371.691 148.464C371.246 149.131 370.569 149.608 369.792 149.802L369 150L367.5 150.5C366.503 150.832 365.545 151.273 364.644 151.813L363.5 152.5L363.197 152.727C362.067 153.575 360.999 154.501 360 155.5L358.5 157C357.835 157.665 357.237 158.394 356.716 159.177L356.5 159.5L355.5 161L354.5 163C354.18 163.64 353.618 164.127 352.939 164.354L352.922 164.359C352.643 164.452 352.35 164.5 352.055 164.5H351C350.336 164.5 349.674 164.419 349.03 164.257L348.269 164.067C348.09 164.023 347.917 163.958 347.752 163.876C347.264 163.632 346.868 163.236 346.624 162.748L346.5 162.5L346.178 161.856C346.06 161.62 345.905 161.405 345.719 161.219C345.258 160.758 344.634 160.5 343.984 160.5H343.757C343.586 160.5 343.415 160.515 343.247 160.544L329 163L327 163.5C326.004 163.832 325.058 164.295 324.184 164.877L324 165L323.894 165.053C323.306 165.347 322.658 165.5 322 165.5H320.5H318.5C317.169 165.5 315.84 165.61 314.527 165.829L313.5 166L309.5 167L306.74 168.004C304.918 168.666 303.163 169.502 301.5 170.5L299 172.5L297.5 174L296.775 174.725C295.927 175.573 295.165 176.502 294.5 177.5L293.813 178.531C293.617 178.824 293.288 179 292.936 179C292.657 179 292.389 178.889 292.191 178.691L292.182 178.682C292.062 178.562 291.972 178.417 291.919 178.256L291.704 177.611C291.569 177.206 291.37 176.826 291.114 176.485L290.457 175.609C290.153 175.204 289.82 174.82 289.462 174.462L289.076 174.076C288.36 173.36 287.586 172.704 286.762 172.116L286.203 171.717C285.07 170.907 283.874 170.187 282.628 169.564L281.5 169L278.5 167.5L276 166.5L275.885 166.462C273.965 165.822 271.997 165.333 270 165L268.973 164.829C267.66 164.61 266.331 164.5 265 164.5H264.464C264.159 164.5 263.858 164.429 263.585 164.293C263.205 164.103 262.897 163.795 262.707 163.415C262.571 163.142 262.5 162.841 262.5 162.536V162.111C262.5 161.706 262.565 161.304 262.693 160.92L263 160L263.5 158L264 156.5L264.442 154.29C264.481 154.097 264.5 153.901 264.5 153.704V153.663C264.5 153.227 264.399 152.797 264.204 152.407C264.069 152.138 263.891 151.891 263.678 151.678L263.379 151.379C263.127 151.127 262.851 150.9 262.554 150.703L261.5 150L259.5 148.5L258 147.5L257.677 147.284C256.894 146.763 256.165 146.165 255.5 145.5L255.177 145.177C255.064 145.064 255 144.91 255 144.75C255 144.59 255.064 144.436 255.177 144.323L255.5 144C255.827 143.673 256.237 143.441 256.686 143.329L257 143.25C257.654 143.086 258.258 142.742 258.735 142.265C258.91 142.09 259.069 141.896 259.207 141.69L259.427 141.359C259.807 140.789 260.11 140.17 260.327 139.52L260.418 139.245C260.473 139.082 260.539 138.923 260.616 138.769L260.665 138.671C260.885 138.23 261 137.743 261 137.25C261 136.757 260.885 136.27 260.665 135.829L260 134.5L259.297 133.446C259.1 133.149 258.873 132.873 258.621 132.621L258.472 132.472C258.159 132.159 257.799 131.899 257.404 131.702C257.135 131.568 256.853 131.463 256.562 131.391L256.39 131.347C255.477 131.119 254.523 131.119 253.61 131.347C253.205 131.449 252.811 131.594 252.437 131.781L251.949 132.026C251.32 132.34 250.747 132.753 250.25 133.25L250.144 133.356C249.717 133.783 249.362 134.275 249.093 134.815L249.059 134.882C248.691 135.617 248.5 136.428 248.5 137.25C248.5 138.072 248.691 138.883 249.059 139.618L249.5 140.5L249.815 141.129C249.937 141.373 250 141.642 250 141.915C250 142.58 249.624 143.188 249.029 143.485L249 143.5C248.342 143.829 247.617 144 246.882 144H246H243.5H242.6C241.871 144 241.148 144.117 240.457 144.348L240.323 144.392C240.108 144.464 239.898 144.551 239.695 144.652L239.558 144.721C239.189 144.906 238.851 145.149 238.558 145.442C238.19 145.81 237.9 146.249 237.707 146.733L237 148.5L236.468 150.096C236.156 151.031 235.919 151.988 235.757 152.96L235.564 154.116C235.521 154.372 235.5 154.63 235.5 154.889V155.337C235.5 155.773 235.399 156.203 235.204 156.593L235.089 156.822C235.03 156.94 234.952 157.048 234.859 157.141C234.629 157.371 234.317 157.5 233.992 157.5H231H226.5H225.541C223.517 157.5 221.497 157.667 219.5 158L214 159.5L209 160.5L200.5 161.5C196.842 161.5 193.193 161.139 189.607 160.421L185 159.5L172.5 158H164.5H158.559C156.523 158 154.49 158.16 152.479 158.477L149.441 158.957C147.163 159.316 144.961 160.054 142.926 161.139C140.017 162.691 137.521 164.914 135.645 167.624Z" fill="#09AFB4" stroke="#09AFB4" stroke-width="12"/>
<path d="M197.504 204.456L191.552 216.072C190.688 217.704 189.728 218.568 188.48 218.568C187.52 218.568 180.8 217.032 176 212.52C171.008 215.112 165.824 216.264 160.928 216.264C144.896 216.264 131.072 203.976 131.072 188.52C131.072 177 139.232 160.392 158.24 160.392C163.04 160.392 167.744 161.448 171.488 163.08C172.064 162.408 172.928 162.12 174.08 162.12H174.56L191.168 163.56C193.664 163.752 194.336 165 194.336 166.152V166.632C192.992 175.368 191.648 183.72 191.648 190.056C191.648 195.816 192.704 199.944 195.776 201.576C196.736 202.056 197.792 202.632 197.792 203.592C197.792 203.784 197.696 204.072 197.504 204.456ZM169.376 197.448C169.088 194.952 168.896 192.264 168.896 189.288C168.896 186.792 168.992 184.2 169.184 181.32C168.032 179.4 165.44 178.056 162.656 178.056C156.608 178.056 153.248 183.912 153.248 188.808C153.248 194.184 156.992 198.792 163.232 198.792C165.056 198.792 167.168 198.408 169.376 197.448Z" fill="#FF5C00"/>
<path d="M224.765 215.208L205.824 217.918C204.677 218.018 203.654 217.337 203.554 216.189L196.542 166.691C196.442 165.543 197.219 164.512 198.271 164.42L209.315 162.879C214.338 160.804 219.245 159.605 224.027 159.188C227.278 158.905 230.468 159.013 233.491 159.424C234.959 159.681 235.599 160.396 235.699 161.544C235.732 161.926 235.67 162.317 235.616 162.804L234.018 176.53C233.848 177.894 232.95 178.647 231.802 178.747C231.515 178.772 231.124 178.71 230.733 178.648C229.161 178.303 227.51 178.158 225.885 178.299C224.546 178.416 223.223 178.724 221.727 179.24L226.494 212.937L226.511 213.128C226.602 214.18 225.817 215.116 224.765 215.208Z" fill="#FF5C00"/>
<path d="M291.218 180.809L282.959 190.14C282.199 191.088 280.876 191.622 279.795 191.223C279.435 191.09 279.052 190.743 278.791 190.34C277.67 188.39 274.884 186.235 271.733 185.07C269.391 184.204 261.358 181.849 257.73 191.664C255.5 197.697 258.357 203.256 264.21 205.42C268.082 206.851 273.217 206.804 279.004 204.44C279.744 204.099 280.72 203.949 281.531 204.248C282.161 204.481 282.748 205.108 282.979 206.421C283.469 210.082 283.95 212.102 284.292 215.606C284.363 216.246 284.31 216.943 284.077 217.574C283.677 218.654 282.861 219.478 281.381 220.159C271.525 224.397 261.749 224.263 253.644 221.267C238.697 215.742 229.321 200.404 235.179 184.556C242.635 164.386 261.782 162.15 276.639 167.642C286.634 171.336 292.374 177.961 291.541 180.212C291.475 180.392 291.375 180.662 291.218 180.809Z" fill="#FF5C00"/>
<path d="M359.5 199.469L356.937 212.267C356.55 214.072 355.862 215.165 354.661 215.505C353.737 215.767 346.853 216.119 341.005 213.085C336.908 216.938 332.234 219.459 327.523 220.792C312.097 225.158 295.449 217.1 291.239 202.228C288.102 191.144 291.43 172.941 309.719 167.764C314.338 166.457 319.152 166.192 323.199 166.742C323.57 165.939 324.323 165.427 325.431 165.113L325.893 164.982L342.266 161.844C344.719 161.349 345.706 162.367 346.02 163.476L346.15 163.938C347.236 172.709 348.218 181.112 349.944 187.208C351.512 192.75 353.653 196.435 357.053 197.168C358.108 197.369 359.28 197.635 359.542 198.559C359.594 198.744 359.58 199.047 359.5 199.469ZM330.527 200.387C329.57 198.063 328.653 195.529 327.843 192.666C327.163 190.264 326.549 187.744 325.95 184.92C324.318 183.387 321.458 182.8 318.779 183.558C312.96 185.205 311.322 191.755 312.655 196.466C314.119 201.638 318.977 205.053 324.981 203.353C326.736 202.856 328.664 201.912 330.527 200.387Z" fill="#FF5C00"/>
<path d="M416.236 198.91L409.047 209.827C407.974 211.49 406.862 212.269 405.443 212.019C405.443 212.019 397.463 209.734 393.102 203.506C387.291 205.504 381.574 205.86 376.374 204.944C360.586 202.16 349.2 187.675 351.884 172.453C353.918 160.919 364.805 146.17 383.524 149.47C387.589 150.187 391.504 151.755 394.691 153.584L400.861 128.547C401.238 126.956 402.918 126.278 404.809 126.611L421.114 129.779C423.762 130.245 424.301 131.608 424.068 132.931L424.018 133.215C423.612 134.411 413.635 173.301 412.485 179.825C411.118 187.577 411.236 193.544 414.812 195.929C415.768 196.585 416.725 197.241 416.575 198.092C416.525 198.376 416.475 198.659 416.236 198.91ZM388.99 187.574C389.079 183.203 389.584 178.126 390.651 172.075C389.944 170.001 387.53 168.211 384.694 167.711C379.022 166.71 374.512 171.277 373.579 176.571C372.645 181.865 375.532 187.054 381.583 188.12C383.663 188.487 386.126 188.337 388.99 187.574Z" fill="#FF5C00"/>
<path d="M460.258 214.142L459.175 214.536C438.697 221.99 423.324 211.75 418.333 198.038C413.638 185.138 417.824 168.29 438.392 160.804C460.764 152.661 469.013 172.237 470.097 175.214C471.607 179.363 471.141 183.415 466.475 187.157C462.76 190.143 456.446 193.565 451.821 195.453C450.377 195.978 449.696 195.511 448.942 194.56C446.776 191.977 442.927 186.737 442.796 186.376C442.435 185.384 442.992 184.67 444.067 183.973C448.363 181.183 448.929 180.773 448.47 179.51C448.174 178.698 445.409 176.435 441.621 177.814C437.29 179.39 435.061 184.492 437.097 190.085C439.428 196.49 446.746 202 458.022 197.895C458.653 197.665 459.375 197.403 459.974 197.083L460.154 197.017C461.417 196.557 463.246 196.811 463.804 198.345C464.133 199.247 464.02 206.235 463.783 209.794C463.587 211.5 462.874 213.19 460.258 214.142Z" fill="#FF5C00"/>
<g clip-path="url(#clip0_1_2)">
<path d="M383.148 141.647C377.226 145.304 375.846 140.152 373.097 140.198M393.198 143.095L391.863 138.11C391.747 137.483 391.498 136.888 391.134 136.365C390.77 135.841 390.299 135.401 389.752 135.073C393.675 133.539 397.514 130.868 395.63 123.836C395.148 122.038 393.993 120.494 392.404 119.524C392.57 117.793 392.062 116.065 390.987 114.699C390.987 114.699 389.347 114.656 386.462 117.955C383.296 117.946 380.184 118.779 377.447 120.37C373.299 118.956 371.9 119.814 371.9 119.814C371.653 121.534 372.077 123.284 373.086 124.7C372.188 126.347 371.963 128.277 372.458 130.086C374.329 137.066 378.989 137.46 383.168 136.879C382.861 137.43 382.675 138.04 382.619 138.668C382.564 139.297 382.642 139.93 382.848 140.526L384.183 145.51" stroke="white" stroke-width="3" stroke-linecap="round" stroke-linejoin="round"/>
</g>
<g clip-path="url(#clip1_1_2)">
<path fill-rule="evenodd" clip-rule="evenodd" d="M259.823 138.974C259.141 141.367 256.929 142.911 254.55 142.845C254.542 142.899 254.53 142.953 254.515 143.007L253.858 145.312C253.864 145.316 253.871 145.321 253.877 145.325L262.098 151.233C263.59 152.305 263.943 154.051 263.434 155.498L262.199 159.834C261.727 161.49 260.249 162.658 258.529 162.734L248.7 163.17C247.836 163.208 246.982 162.965 246.267 162.476L238.143 156.927C236.721 155.956 236.081 154.184 236.552 152.529L237.788 148.192C238.117 146.694 239.337 145.396 241.17 145.271L251.271 144.583C251.278 144.582 251.286 144.582 251.293 144.581L251.95 142.277C251.965 142.223 251.984 142.171 252.005 142.12C249.949 140.923 248.882 138.445 249.564 136.052C250.371 133.219 253.322 131.576 256.155 132.383C258.987 133.19 260.63 136.141 259.823 138.974ZM250.517 147.307L241.351 147.932C240.859 147.965 240.523 148.298 240.41 148.694L240.417 148.696C240.295 149.124 240.44 149.574 240.808 149.838L249.03 155.746C249.282 155.927 249.589 156.014 249.899 155.993L259.999 155.305C260.451 155.274 260.812 154.969 260.934 154.54L260.941 154.542C261.054 154.146 260.943 153.686 260.542 153.399L253.082 148.038L251.958 151.983C251.756 152.692 251.018 153.102 250.31 152.901C249.602 152.699 249.191 151.961 249.393 151.253L250.517 147.307ZM252.103 136.775C251.696 138.205 252.525 139.695 253.956 140.103C255.386 140.51 256.876 139.681 257.284 138.25C257.691 136.82 256.862 135.33 255.431 134.922C254.001 134.515 252.511 135.344 252.103 136.775ZM239.117 153.259L239.437 152.136L247.474 157.911C248.23 158.454 249.151 158.717 250.08 158.654L259.954 157.981L259.634 159.104C259.477 159.655 258.984 160.045 258.411 160.07L248.582 160.505C248.294 160.518 248.009 160.437 247.771 160.274L239.647 154.725C239.173 154.402 238.96 153.811 239.117 153.259Z" fill="white"/>
</g>
<g clip-path="url(#clip2_1_2)">
<path d="M301.153 233.708L303.604 246.814L282.635 250.735L280.184 237.629M293.12 248.775L289.443 229.116M289.443 229.116L283.545 230.218C282.676 230.381 281.778 230.192 281.049 229.692C280.32 229.192 279.819 228.424 279.656 227.555C279.494 226.686 279.683 225.788 280.182 225.058C280.682 224.329 281.451 223.828 282.32 223.665C286.907 222.808 289.443 229.116 289.443 229.116ZM289.443 229.116L295.341 228.013C296.21 227.85 296.979 227.349 297.478 226.62C297.978 225.89 298.167 224.992 298.005 224.123C297.842 223.254 297.341 222.485 296.612 221.986C295.882 221.486 294.984 221.297 294.115 221.459C289.528 222.317 289.443 229.116 289.443 229.116ZM276.337 231.566L302.549 226.665L303.775 233.218L277.562 238.12L276.337 231.566Z" stroke="white" stroke-width="3" stroke-linecap="round" stroke-linejoin="round"/>
</g>
<g clip-path="url(#clip3_1_2)">
<path d="M179.841 231.435C179.879 231.255 180.056 231.14 180.236 231.178C180.416 231.217 180.531 231.394 180.493 231.574L179.938 234.182C179.9 234.362 179.723 234.477 179.543 234.439C179.363 234.401 179.248 234.224 179.286 234.043L179.841 231.435Z" stroke="white" stroke-width="2"/>
<path d="M177.217 239.056L178.195 239.267L178.195 239.264L177.217 239.056ZM179.989 226.014L180.967 226.222L180.968 226.219L179.989 226.014ZM177.632 241.877L178.195 239.267L176.24 238.845L175.677 241.456L177.632 241.877ZM178.594 239.008C178.778 239.047 178.892 239.226 178.854 239.404L180.81 239.82C181.079 238.557 180.27 237.32 179.01 237.052L178.594 239.008ZM179.01 237.052C177.75 236.784 176.507 237.585 176.239 238.848L178.195 239.264C178.233 239.086 178.41 238.969 178.594 239.008L179.01 237.052ZM175.372 221.966L179.95 222.939L180.366 220.982L175.788 220.009L175.372 221.966ZM175.282 241.712L171.352 240.877L170.936 242.833L174.866 243.668L175.282 241.712ZM171.352 240.877C168.859 240.347 167.088 239.968 165.783 239.502C164.504 239.046 163.816 238.553 163.379 237.883L161.703 238.975C162.474 240.158 163.622 240.855 165.11 241.386C166.572 241.907 168.499 242.315 170.936 242.833L171.352 240.877ZM175.788 220.009C173.35 219.491 171.424 219.08 169.877 218.962C168.301 218.841 166.969 219.011 165.784 219.778L166.871 221.457C167.542 221.023 168.371 220.853 169.725 220.956C171.107 221.061 172.879 221.436 175.372 221.966L175.788 220.009ZM164.004 227.944C164.447 228.332 164.669 228.937 164.539 229.546L166.496 229.962C166.782 228.614 166.286 227.283 165.321 226.439L164.004 227.944ZM164.752 225.53C165.368 223.131 165.942 222.059 166.871 221.457L165.784 219.778C164.156 220.832 163.438 222.608 162.815 225.033L164.752 225.53ZM164.539 229.546C164.41 230.155 163.961 230.617 163.399 230.791L163.989 232.702C165.215 232.323 166.209 231.31 166.496 229.962L164.539 229.546ZM161.128 232.967C160.711 235.436 160.645 237.35 161.703 238.975L163.379 237.883C162.775 236.956 162.687 235.743 163.1 233.301L161.128 232.967ZM187.415 234.408C187.544 233.799 187.993 233.337 188.555 233.163L187.965 231.252C186.739 231.631 185.745 232.644 185.458 233.992L187.415 234.408ZM190.826 230.986C191.243 228.518 191.309 226.604 190.251 224.979L188.575 226.07C189.179 226.998 189.267 228.211 188.854 230.653L190.826 230.986ZM187.95 236.01C187.507 235.622 187.285 235.017 187.415 234.408L185.458 233.992C185.172 235.34 185.668 236.671 186.633 237.515L187.95 236.01ZM187.202 238.424C186.586 240.823 186.012 241.895 185.083 242.497L186.17 244.175C187.798 243.121 188.516 241.346 189.139 238.921L187.202 238.424ZM186.633 237.515C186.96 237.801 187.173 237.987 187.315 238.125C187.384 238.193 187.414 238.228 187.423 238.239C187.439 238.259 187.383 238.197 187.344 238.071L189.254 237.478C189.187 237.263 189.071 237.098 188.991 236.998C188.905 236.889 188.806 236.786 188.71 236.693C188.521 236.508 188.258 236.279 187.95 236.01L186.633 237.515ZM189.139 238.921C189.196 238.7 189.256 238.471 189.288 238.277C189.321 238.079 189.351 237.791 189.254 237.478L187.344 238.071C187.303 237.939 187.33 237.86 187.315 237.947C187.309 237.985 187.298 238.039 187.278 238.123C187.258 238.206 187.233 238.302 187.202 238.424L189.139 238.921ZM188.555 233.163C188.946 233.042 189.279 232.939 189.527 232.848C189.653 232.801 189.786 232.748 189.908 232.683C190.022 232.624 190.195 232.521 190.344 232.351L188.84 231.033C188.927 230.934 189.003 230.9 188.981 230.912C188.968 230.918 188.927 230.938 188.835 230.971C188.65 231.04 188.379 231.124 187.965 231.252L188.555 233.163ZM188.854 230.653C188.833 230.777 188.816 230.875 188.801 230.959C188.785 231.043 188.773 231.098 188.764 231.135C188.741 231.22 188.749 231.137 188.84 231.033L190.344 232.351C190.559 232.106 190.65 231.83 190.7 231.636C190.749 231.445 190.788 231.212 190.826 230.986L188.854 230.653ZM163.399 230.791C163.008 230.912 162.675 231.015 162.427 231.106C162.301 231.152 162.168 231.206 162.045 231.271C161.932 231.33 161.759 231.433 161.61 231.602L163.114 232.921C163.027 233.02 162.951 233.054 162.973 233.042C162.986 233.036 163.027 233.016 163.119 232.982C163.304 232.914 163.575 232.83 163.989 232.702L163.399 230.791ZM163.1 233.301C163.121 233.177 163.138 233.079 163.153 232.995C163.169 232.911 163.181 232.856 163.19 232.819C163.213 232.734 163.205 232.817 163.114 232.921L161.61 231.602C161.395 231.848 161.304 232.124 161.254 232.318C161.205 232.509 161.166 232.742 161.128 232.967L163.1 233.301ZM165.321 226.439C164.994 226.153 164.781 225.966 164.639 225.828C164.57 225.76 164.54 225.726 164.531 225.715C164.515 225.695 164.571 225.757 164.61 225.883L162.7 226.475C162.767 226.691 162.883 226.855 162.963 226.956C163.049 227.065 163.148 227.168 163.244 227.261C163.433 227.446 163.696 227.675 164.004 227.944L165.321 226.439ZM162.815 225.033C162.758 225.254 162.698 225.483 162.666 225.677C162.633 225.875 162.603 226.163 162.7 226.475L164.61 225.883C164.651 226.015 164.624 226.094 164.638 226.007C164.645 225.969 164.656 225.914 164.676 225.831C164.696 225.748 164.721 225.652 164.752 225.53L162.815 225.033ZM180.968 226.219L181.652 222.955L179.694 222.545L179.011 225.809L180.968 226.219ZM181.227 226.618C181.043 226.579 180.93 226.4 180.967 226.222L179.011 225.806C178.743 227.069 179.552 228.307 180.812 228.574L181.227 226.618ZM181.626 226.362C181.588 226.54 181.412 226.657 181.227 226.618L180.812 228.574C182.072 228.842 183.314 228.041 183.582 226.778L181.626 226.362ZM182.315 223.123L181.626 226.362L183.582 226.778L184.271 223.539L182.315 223.123ZM183.861 223.796C186.7 224.476 187.914 225.056 188.575 226.07L190.251 224.979C189.107 223.223 187.112 222.518 184.328 221.851L183.861 223.796ZM184.271 223.539C184.232 223.721 184.05 223.841 183.861 223.796L184.328 221.851C183.414 221.632 182.508 222.213 182.315 223.123L184.271 223.539ZM179.95 222.939C179.773 222.901 179.656 222.727 179.694 222.545L181.652 222.955C181.841 222.053 181.263 221.173 180.366 220.982L179.95 222.939ZM180.168 244.745C182.634 245.162 184.547 245.227 186.17 244.175L185.083 242.497C184.155 243.098 182.941 243.185 180.501 242.773L180.168 244.745ZM178.854 239.404L178.306 241.982L180.262 242.398L180.81 239.82L178.854 239.404ZM175.677 241.456C175.643 241.613 175.617 241.733 175.592 241.836C175.567 241.939 175.549 241.999 175.536 242.036C175.523 242.072 175.524 242.059 175.547 242.025C175.575 241.985 175.62 241.936 175.681 241.896L176.768 243.575C177.141 243.334 177.318 242.991 177.418 242.714C177.508 242.464 177.572 242.156 177.632 241.877L175.677 241.456ZM174.866 243.668C175.145 243.727 175.452 243.795 175.717 243.815C176.01 243.837 176.396 243.816 176.768 243.575L175.681 241.896C175.743 241.857 175.806 241.835 175.854 241.826C175.894 241.819 175.906 241.824 175.868 241.821C175.83 241.818 175.767 241.809 175.663 241.79C175.559 241.771 175.439 241.745 175.282 241.712L174.866 243.668ZM180.501 242.773C180.342 242.746 180.22 242.726 180.117 242.705C180.014 242.685 179.954 242.67 179.919 242.659C179.885 242.648 179.901 242.649 179.938 242.673C179.982 242.702 180.031 242.747 180.071 242.805L178.417 243.929C178.67 244.302 179.023 244.473 179.314 244.565C179.572 244.647 179.887 244.698 180.168 244.745L180.501 242.773ZM178.306 241.982C178.245 242.267 178.176 242.582 178.156 242.854C178.135 243.157 178.161 243.552 178.417 243.929L180.071 242.805C180.112 242.865 180.135 242.929 180.145 242.98C180.154 243.022 180.149 243.036 180.151 242.997C180.154 242.958 180.162 242.894 180.182 242.788C180.202 242.682 180.228 242.558 180.262 242.398L178.306 241.982Z" fill="white"/>
</g>
<g clip-path="url(#clip4_1_2)">
<path d="M389.357 221.901C388.311 221.541 387.757 220.405 388.117 219.359L390.288 213.056C390.648 212.009 391.784 211.455 392.83 211.816C393.876 212.176 394.43 213.311 394.07 214.358L391.9 220.661C391.539 221.708 390.404 222.262 389.357 221.901Z" stroke="white" stroke-width="3" stroke-linecap="round" stroke-linejoin="round"/>
<path d="M396.921 224.506L395.03 223.855L395.682 221.964C396.042 220.917 397.177 220.363 398.224 220.724C399.27 221.084 399.824 222.219 399.464 223.266C399.103 224.312 397.968 224.866 396.921 224.506Z" stroke="white" stroke-width="3" stroke-linecap="round" stroke-linejoin="round"/>
<path d="M381.318 224.774C382.364 225.134 382.918 226.269 382.557 227.316L380.387 233.619C380.027 234.666 378.891 235.219 377.845 234.859C376.798 234.499 376.245 233.363 376.605 232.317L378.775 226.013C379.136 224.967 380.271 224.413 381.318 224.774Z" stroke="white" stroke-width="3" stroke-linecap="round" stroke-linejoin="round"/>
<path d="M373.753 222.169L375.644 222.82L374.993 224.711C374.633 225.758 373.497 226.311 372.451 225.951C371.405 225.591 370.851 224.455 371.211 223.409C371.571 222.363 372.707 221.809 373.753 222.169Z" stroke="white" stroke-width="3" stroke-linecap="round" stroke-linejoin="round"/>
<path d="M386.774 227.357C387.134 226.311 388.269 225.757 389.316 226.117L395.619 228.288C396.666 228.648 397.219 229.784 396.859 230.83C396.499 231.876 395.363 232.43 394.317 232.07L388.013 229.899C386.967 229.539 386.413 228.404 386.774 227.357Z" stroke="white" stroke-width="3" stroke-linecap="round" stroke-linejoin="round"/>
<path d="M386.711 233.682L384.82 233.03L384.169 234.921C383.809 235.968 384.363 237.103 385.409 237.464C386.455 237.824 387.591 237.27 387.951 236.224C388.311 235.177 387.758 234.042 386.711 233.682Z" stroke="white" stroke-width="3" stroke-linecap="round" stroke-linejoin="round"/>
<path d="M383.901 219.317C384.262 218.271 383.708 217.136 382.661 216.775L376.358 214.605C375.312 214.245 374.176 214.798 373.816 215.845C373.455 216.891 374.009 218.027 375.056 218.387L381.359 220.557C382.405 220.918 383.541 220.364 383.901 219.317Z" stroke="white" stroke-width="3" stroke-linecap="round" stroke-linejoin="round"/>
<path d="M383.964 212.993L385.855 213.644L386.506 211.753C386.866 210.707 386.312 209.571 385.266 209.211C384.22 208.851 383.084 209.405 382.724 210.451C382.363 211.497 382.917 212.633 383.964 212.993Z" stroke="white" stroke-width="3" stroke-linecap="round" stroke-linejoin="round"/>
</g>
<defs>
<clipPath id="clip0_1_2">
<rect width="32" height="32" fill="white" transform="translate(365 120.282) rotate(-15)"/>
</clipPath>
<clipPath id="clip1_1_2">
<rect width="32" height="32" fill="white" transform="translate(240.767 128) rotate(15.9)"/>
</clipPath>
<clipPath id="clip2_1_2">
<rect width="32" height="32" fill="white" transform="translate(272 222.882) rotate(-10.5926)"/>
</clipPath>
<clipPath id="clip3_1_2">
<rect width="32" height="32" fill="white" transform="translate(163.653 213) rotate(12)"/>
</clipPath>
<clipPath id="clip4_1_2">
<rect width="32" height="32" fill="white" transform="translate(375.418 203) rotate(19)"/>
</clipPath>
</defs>
</svg>
